<svg xmlns="http://www.w3.org/2000/svg" viewBox="764 5834 393 42.118"><defs><style>.a{fill:#223843;}</style></defs><g transform="translate(764 5833.991)"><g transform="translate(597.418 235.478) rotate(-179.895)"><path class="a" d="M443.5,192.8h-.3c-4.9-.1-13.7,1.3-22.4,3.6-9.2,2.5-18,6.5-28,9.6a145.93,145.93,0,0,0-13.7-5.6c-8-2.8-15.7-4.6-21.7-4.6a31.453,31.453,0,0,0-4.4.3,31.049,31.049,0,0,0-4.2.8,26.974,26.974,0,0,0-7.1,2.8c-3.7,2.1-6.1,5-6.6,8.2-2.1.1-4.1.2-5.7.4a29.354,29.354,0,0,0-8.9,2.2,9.917,9.917,0,0,0-2.5,1.7c-2.7,2.4-2.6,5.5-2.6,7.3a6.913,6.913,0,0,0,1.8,4.2,19.221,19.221,0,0,0,5.3,4.7,19.66,19.66,0,0,0,4.1,2.1,38.891,38.891,0,0,0,11.1,2.9,53.851,53.851,0,0,0,7.2.4,56.745,56.745,0,0,0,7.9-.6c9.2-1.2,19.9-4,29.8-6.9,1.7-.5,2.9-.9,4.4-1.4,1.3.6,2.7,1.1,4.1,1.7,6.4,2.8,12.6,5.6,18.4,8l.7-1.6c-5.7-2.3-12-5.1-18.3-8-.8-.3-1.5-.7-2.3-1,9.5-3.1,17.7-6,20.2-6.9.3-.1,1.3-.5,1.7-.6,5.2,2.3,10.7,4.5,16.2,6.4,4.5,1.5,8.9,2.8,12.7,3.8a48.369,48.369,0,0,0,9.7,1.7,33.213,33.213,0,0,0,16.1-3.9,28.4,28.4,0,0,0,3.4-2.2,23.277,23.277,0,0,0,2.8-2.6,9.082,9.082,0,0,0,2.3-6.6,11.153,11.153,0,0,0-6.6-9.7,26.556,26.556,0,0,0-8.4-2.2,9.04,9.04,0,0,0-4.6-6.3,17.685,17.685,0,0,0-5.9-1.7,22.814,22.814,0,0,0-5.1-.4Zm0,1.7h0c2,.1,3.7.3,5.2.5a17.861,17.861,0,0,1,4.1,1.3,8.528,8.528,0,0,1,4.7,4.8,29.623,29.623,0,0,0-3.1-.3c-16.3,1.6-31.7,6.5-47.4,12-1.4-.7-3.1-1.4-4.4-2.1-1.1-.6-2.3-1.1-3.4-1.7.3-.1.9-.3,1.1-.4,4-1.7,12.5-5.2,21.2-8.3C430.1,197.3,439,194.6,443.5,194.5Zm-86,3a39.274,39.274,0,0,1,4.6.3q2.4.3,5.1.9a123.1,123.1,0,0,1,23.6,8.2c-4.8,2.2-9.1,4.2-15.1,6.6-2.2.9-4,1.4-6.1,2.2-2.3-.9-4.6-1.8-6.8-2.6a109.524,109.524,0,0,0-18.2-4.8,48.863,48.863,0,0,0-7.5-.5,8.978,8.978,0,0,1,3.2-5,15.637,15.637,0,0,1,2.5-1.7,24.573,24.573,0,0,1,6.6-2.6A34.542,34.542,0,0,1,357.5,197.5Zm94.8,7.4h.9c1.7,0,3.3.1,4.9.2a4.868,4.868,0,0,1-.1,1.2,14.754,14.754,0,0,1-4.1,7.6,17.453,17.453,0,0,1-4.7,3.5,14.764,14.764,0,0,1-2.7,1,12.588,12.588,0,0,1-2.7.4,23.106,23.106,0,0,1-4.9-.5,10.6,10.6,0,0,1-3.2-1.4,3.335,3.335,0,0,0,2.8-3.3,3.417,3.417,0,0,0-3.4-3.3h-1.5a3.006,3.006,0,0,0-2,2.8,4.1,4.1,0,0,0,.7,2.6,7.455,7.455,0,0,0,2.3,2.4,11.751,11.751,0,0,0,3.9,1.7,20.9,20.9,0,0,0,5.3.6,15.458,15.458,0,0,0,3.1-.4,26.541,26.541,0,0,0,3-1.1,18.791,18.791,0,0,0,5.3-3.9,16.38,16.38,0,0,0,2.1-2.5,16.693,16.693,0,0,0,2.4-6c.1-.5,0-.9.1-1.4a34.367,34.367,0,0,1,6.9,1.1,10.635,10.635,0,0,1,4.3,2.5,7.154,7.154,0,0,1,1.8,4.6,6.578,6.578,0,0,1-.4,2.8,7.644,7.644,0,0,1-1.5,2.6,19.266,19.266,0,0,1-2.5,2.4,24.9,24.9,0,0,1-3.2,2,32.921,32.921,0,0,1-7.6,2.8,29.072,29.072,0,0,1-7.5.8,54.766,54.766,0,0,1-9.3-1.6,123.126,123.126,0,0,1-12.6-3.8c-4.8-1.6-9.8-3.6-14.5-5.6,4.1-1.5,9.4-3.4,16.6-5.7C438.6,207.5,447.4,205.1,452.3,204.9Zm-115.5,4.7c7.4,0,16,2.1,25.3,5.3,1.6.6,3.3,1.2,5,1.9-1.6.6-3.3,1.3-4.7,1.7-1.6.5-3,.9-4.4,1.2a39.658,39.658,0,0,1-4.8.8,21.492,21.492,0,0,1-11.3-3.5C338.9,215,337.1,212.3,336.8,209.6Zm-1.7,0a8.8,8.8,0,0,0,1.6,4.6,15.668,15.668,0,0,0,4.3,4.2,22.263,22.263,0,0,0,5.8,2.8,20.35,20.35,0,0,0,6.4,1,49.031,49.031,0,0,0,9.9-1.6c2.5-.6,5.4-1.5,8.2-2.3.2.1.3.1.4.2,3.3,1.3,6.5,2.8,9.8,4.2-2.2,1-3.1,1.4-5.6,2.4-9.8,3.8-21.1,7.3-30.9,7.3-2.5,0-4.8-.2-6.9-.4-2.1-.3-4.1-.7-5.8-1.1a33.1,33.1,0,0,1-8.6-3.7,24.254,24.254,0,0,1-2.9-2.1,18.836,18.836,0,0,1-2-2.1,7.039,7.039,0,0,1-1.5-3.2,15.136,15.136,0,0,1,.2-3,5.617,5.617,0,0,1,1.9-3,7.584,7.584,0,0,1,2.2-1.4,27.268,27.268,0,0,1,8.3-2.1A18.672,18.672,0,0,1,335.1,209.6Zm61.8.3c1.6.8,3.3,1.5,4.8,2.3.8.4,2,.9,2.9,1.3-7,2.8-13.5,5.4-20.9,8.1-3.3-1.4-6.5-2.9-9.7-4.2,1-.3,1.9-.5,2.9-.8,8-2.3,15.2-4.8,20-6.7Z"/></g><rect class="a" width="112" height="2" transform="translate(281 19.6)"/><rect class="a" width="125" height="2" transform="translate(0 22.6)"/></g></svg>