<svg xmlns="http://www.w3.org/2000/svg" viewBox="706 125.3 507.405 86.7"><defs><style>.a{fill:#ebf5ee;}.b{fill:#3dc2d8;}</style></defs><g transform="translate(706 125.3)"><g transform="translate(95.202)"><path class="a" d="M113.1,90.153V29.126h15.067v9.933C132.544,31.9,139.278,28.2,146.181,28.2a26.737,26.737,0,0,1,7.407,1.178L150.81,43.267a11.772,11.772,0,0,0-6.313-1.683c-8.754,0-16.33,7.155-16.33,26.852V90.068H113.1Z" transform="translate(-113.1 -4.463)"/><path class="a" d="M199.776,28.2c19.613,0,30.976,13.8,30.976,31.481s-11.364,31.481-30.976,31.481S168.8,77.358,168.8,59.681,180.164,28.2,199.776,28.2Zm0,50.084c9.68,0,15.236-8.586,15.236-18.6s-5.556-18.6-15.236-18.6-15.236,8.586-15.236,18.6S190.1,78.284,199.776,78.284Z" transform="translate(-121.915 -4.463)"/><path class="a" d="M272.483,29.3V90.327H257.5V29.3Z" transform="translate(-135.952 -4.637)"/><path class="a" d="M318.562,23.737c6.145,0,12.121,3.114,14.731,6.566V0h14.983V85.69H333.292V79.377c-1.684,3.114-7.239,7.239-14.731,7.239-18.434,0-27.862-12.71-27.862-31.481C290.7,36.448,300.128,23.737,318.562,23.737Zm2.02,50.084c7.828,0,14.057-6.566,14.057-18.6,0-12.121-6.145-18.6-14.057-18.6-7.828,0-14.141,6.566-14.141,18.6S312.754,73.821,320.582,73.821Z" transform="translate(-141.206)"/><path class="b" d="M402.541,1.2V71.4h35.943V85.964H386.8V1.2Z" transform="translate(-156.414 -0.19)"/><path class="b" d="M460.457,45.119C462.393,35.1,471.231,28.2,483.689,28.2c14.562,0,25.673,6.061,25.673,25.5V90.153H496.989l-1.6-7.744c-4.209,5.219-10.017,8.754-18.771,8.754-10.438,0-18.518-6.4-18.518-18.518s10.69-19.949,26.01-19.949H494.3V50c0-6.818-5.051-8.923-10.69-8.923-4.209,0-8.586,1.347-10.522,6.987Zm19.781,33.165c6.9,0,14.141-4.714,14.141-12.626V64.479H484.362c-6.4,0-10.438,2.441-10.438,7.828C473.925,75.254,475.945,78.284,480.238,78.284Z" transform="translate(-167.697 -4.463)"/><path class="b" d="M564.114,86.616c-7.492,0-13.047-4.125-14.731-7.239V85.69H534.4V0h14.983V30.219c2.694-3.367,8.586-6.566,14.731-6.566,18.434,0,27.862,12.71,27.862,31.481S582.548,86.616,564.114,86.616Zm-2.02-50.084c-7.828,0-14.057,6.566-14.057,18.6,0,12.121,6.145,18.6,14.057,18.6,7.828,0,14.141-6.566,14.141-18.6S569.922,36.532,562.093,36.532Z" transform="translate(-179.772)"/></g><path class="a" d="M42.256,1.2H0L15.825,15.762H37.374c13.552,0,28.451,5.3,28.451,27.862,0,22.475-14.9,27.862-28.451,27.862H31.566V30.83L15.825,15.678v70.2H42.34c19.949,0,39.478-12.71,39.478-42.34C81.734,13.826,62.289,1.2,42.256,1.2Z" transform="translate(0 -0.19)"/><circle class="b" cx="6.566" cy="6.566" r="6.566" transform="translate(40.32 26.683)"/></g></svg>