<svg xmlns="http://www.w3.org/2000/svg" xmlns:xlink="http://www.w3.org/1999/xlink" viewBox="802 311 316 316"><defs><style>.a{fill:#7be0f1;}.b{fill:#3dc2d8;stroke:#ebf5ee;stroke-width:10px;}.c{clip-path:url(#a);}.d{fill:#1b597f;}.e{fill:#ebf5ee;}.f{clip-path:url(#s);}.g{stroke:none;}.h{fill:none;}</style><clipPath id="a"><rect width="159" height="236.843"/></clipPath><clipPath id="s"><rect class="a" width="159" height="236.843"/></clipPath></defs><g transform="translate(0 -46)"><g class="b" transform="translate(802 357)"><circle class="g" cx="158" cy="158" r="158"/><circle class="h" cx="158" cy="158" r="153"/></g><g transform="translate(879 394)"><g class="c"><path class="d" d="M154.649,96.372H9.2l1.178-3.682A108.764,108.764,0,0,1,26.359,63.305C41.236,43.937,60.457,33.7,81.961,33.7s40.726,10.237,55.528,29.605A110.08,110.08,0,0,1,153.471,92.69ZM17.227,90.7H146.7a104.979,104.979,0,0,0-13.772-24.082c-13.919-18.117-31-27.249-50.962-27.249-19.884,0-37.044,9.206-50.962,27.249A104.978,104.978,0,0,0,17.227,90.7" transform="translate(-2.425 -8.882)"/></g><g class="c"><path class="a" d="M67.678,62.669a2.858,2.858,0,0,1-2.283-1.1,2.891,2.891,0,0,1,.516-3.977,48.769,48.769,0,0,1,4.713-3.24,2.83,2.83,0,1,1,3.019,4.787c-1.473.884-2.872,1.915-4.271,2.946a2.509,2.509,0,0,1-1.694.589" transform="translate(-17.084 -14.211)"/></g><g class="c"><path class="a" d="M37.685,94.445a2.332,2.332,0,0,1-1.178-.295,2.856,2.856,0,0,1-1.4-3.756,82.439,82.439,0,0,1,14.582-21.5,2.813,2.813,0,0,1,4.05,3.9A75.262,75.262,0,0,0,40.263,92.825a2.874,2.874,0,0,1-2.578,1.62" transform="translate(-9.184 -17.928)"/></g><g class="c"><path class="d" d="M102.755,85.811a14.655,14.655,0,1,1,14.655-14.655,14.646,14.646,0,0,1-14.655,14.655m0-23.64a8.985,8.985,0,1,0,8.985,8.985,9.021,9.021,0,0,0-8.985-8.985" transform="translate(-23.219 -14.89)"/></g><g class="c"><path class="e" d="M113.243,74.871a4.271,4.271,0,1,0-4.271,4.271,4.274,4.274,0,0,0,4.271-4.271" transform="translate(-27.593 -18.606)"/></g><g class="c"><path class="d" d="M139.263,248.006H19.737L0,111.1H159ZM24.671,242.336H134.4l18.043-125.565H6.554Z" transform="translate(0 -29.28)"/></g><g class="c"><path class="d" d="M40.1,306.972a3.7,3.7,0,0,1-.884-.147,2.853,2.853,0,0,1-1.767-3.609l4.05-12a2.841,2.841,0,0,1,5.376,1.841l-4.05,12a2.924,2.924,0,0,1-2.725,1.915" transform="translate(-9.827 -76.241)"/></g><g class="c"><path class="d" d="M172.32,306.972a2.924,2.924,0,0,1-2.725-1.915l-4.05-12a2.841,2.841,0,0,1,5.376-1.841l4.05,12a2.853,2.853,0,0,1-1.767,3.609,3.694,3.694,0,0,1-.884.147" transform="translate(-43.588 -76.241)"/></g><g class="c"><path class="d" d="M102.394,313.11h-.147a2.754,2.754,0,0,1-2.651-2.946l.957-18.117a2.8,2.8,0,1,1,5.6.295l-.957,18.117a2.722,2.722,0,0,1-2.8,2.651" transform="translate(-26.245 -76.267)"/></g><g class="c"><path class="d" d="M104.506,29.266a4.31,4.31,0,0,1-.957-.147,2.814,2.814,0,0,1-1.694-3.609L104.579,18l-9.279.884L102.885,1.8A2.93,2.93,0,0,1,106.641.323a2.833,2.833,0,0,1,1.4,3.756l-3.682,8.175,8.469-.81-5.744,15.981a2.632,2.632,0,0,1-2.578,1.841" transform="translate(-25.116 -0.028)"/></g><g class="c"><path class="d" d="M129.921,137.365H60.4V111h69.521Zm-63.85-5.671h58.18V116.671H66.071v15.024Z" transform="translate(-15.918 -29.254)"/></g><g class="c"><rect class="d" width="5.671" height="20.694" transform="translate(59.947 84.618)"/></g><g class="c"><rect class="d" width="5.671" height="20.694" transform="translate(76.37 84.618)"/></g><g class="c"><rect class="d" width="5.671" height="20.694" transform="translate(92.793 84.618)"/></g><g class="c"><path class="d" d="M86.882,199.065a3.682,3.682,0,1,1,3.682-3.682,3.693,3.693,0,0,1-3.682,3.682" transform="translate(-21.927 -50.522)"/></g><g class="c"><path class="d" d="M86.882,213.765a3.682,3.682,0,1,1,3.682-3.682,3.646,3.646,0,0,1-3.682,3.682" transform="translate(-21.927 -54.396)"/></g><g class="c"><path class="d" d="M124.287,209.964H102.857a2.326,2.326,0,0,1-2.357-2.357V194.057a2.327,2.327,0,0,1,2.357-2.357h21.431a2.327,2.327,0,0,1,2.357,2.357v13.551a2.423,2.423,0,0,1-2.357,2.357m-19.148-4.787h16.717V196.34H105.14Z" transform="translate(-26.487 -50.522)"/></g><g class="c"><path class="a" d="M41.371,273.356a2.8,2.8,0,0,1-2.8-2.5l-2.283-17.9a2.823,2.823,0,1,1,5.6-.736l2.283,17.9a2.818,2.818,0,0,1-2.43,3.167.664.664,0,0,1-.368.074" transform="translate(-9.557 -65.824)"/></g><g class="f"><path class="a" d="M33.757,212.306a2.8,2.8,0,0,1-2.8-2.5l-.368-2.946a2.823,2.823,0,1,1,5.6-.736l.368,2.946a2.818,2.818,0,0,1-2.43,3.167.664.664,0,0,1-.368.074" transform="translate(-8.054 -53.675)"/></g><g class="c"><path class="a" d="M29.48,178.267a2.8,2.8,0,0,1-2.8-2.5L20.79,128.557a2.823,2.823,0,1,1,5.6-.736l5.892,47.207a2.818,2.818,0,0,1-2.43,3.167.664.664,0,0,1-.368.074" transform="translate(-5.472 -33.039)"/></g></g></g></svg>