<svg xmlns="http://www.w3.org/2000/svg" viewBox="473.405 2764.488 113.541 118.031"><defs><style>.a{fill:#3fc2d8;}</style></defs><g transform="translate(473.405 2796.284) rotate(-22)"><path class="a" d="M130.3,149.107a6.5,6.5,0,0,1-6.489-6.489V98.527a29.616,29.616,0,0,0-59.232,0v44.091a6.5,6.5,0,0,1-6.489,6.489,6.393,6.393,0,0,1-6.489-6.489V98.527a42.427,42.427,0,0,1,84.855,0v44.091A6.118,6.118,0,0,1,130.3,149.107Z" transform="translate(-51.6 -56.1)"/></g><g transform="translate(501.35 2808.156) rotate(-22)"><path class="a" d="M85.631,135.048a9.738,9.738,0,0,1-2.163-.333,6.445,6.445,0,0,1-3.993-8.153l5.99-17.137L64.5,111.589,81.471,72.822a6.445,6.445,0,0,1,11.813,5.158L85.3,96.614l19.134-2-12.645,36.1A6.606,6.606,0,0,1,85.631,135.048Z" transform="translate(-64.5 -69.008)"/></g></svg>