<svg xmlns="http://www.w3.org/2000/svg" xmlns:xlink="http://www.w3.org/1999/xlink" viewBox="893 10935 130 130"><defs><style>.a{fill:#7be0f1;}.b{fill:#3dc2d8;}.c{clip-path:url(#a);}.d{fill:#1b597f;}.e{fill:#ebf5ee;}.f{clip-path:url(#s);}</style><clipPath id="a"><rect width="69.373" height="103.337"/></clipPath><clipPath id="s"><rect class="a" width="69.373" height="103.337"/></clipPath></defs><g transform="translate(2 1528)"><circle class="b" cx="65" cy="65" r="65" transform="translate(891 9407)"/><g transform="translate(921.3 9420.363)"><g class="c"><path class="d" d="M72.661,61.044H9.2l.514-1.607a47.455,47.455,0,0,1,6.973-12.821C23.177,38.166,31.564,33.7,40.946,33.7s17.769,4.466,24.228,12.917a48.03,48.03,0,0,1,6.973,12.821ZM12.7,58.57H69.191a45.8,45.8,0,0,0-6.009-10.507c-6.073-7.9-13.528-11.889-22.235-11.889-8.676,0-16.162,4.017-22.235,11.889A45.8,45.8,0,0,0,12.7,58.57" transform="translate(-6.244 -22.871)"/></g><g class="c"><path class="a" d="M66.069,57.737a1.247,1.247,0,0,1-1-.482A1.261,1.261,0,0,1,65.3,55.52a21.277,21.277,0,0,1,2.056-1.414,1.235,1.235,0,1,1,1.317,2.089c-.643.386-1.253.835-1.864,1.285a1.094,1.094,0,0,1-.739.257" transform="translate(-43.995 -36.594)"/></g><g class="c"><path class="a" d="M36.086,79.552a1.017,1.017,0,0,1-.514-.129,1.246,1.246,0,0,1-.611-1.639A35.969,35.969,0,0,1,41.324,68.4a1.227,1.227,0,0,1,1.767,1.7,32.837,32.837,0,0,0-5.88,8.74,1.254,1.254,0,0,1-1.125.707" transform="translate(-23.651 -46.166)"/></g><g class="c"><path class="d" d="M94.494,69.289a6.394,6.394,0,1,1,6.394-6.394,6.39,6.39,0,0,1-6.394,6.394m0-10.314a3.92,3.92,0,1,0,3.92,3.92,3.936,3.936,0,0,0-3.92-3.92" transform="translate(-59.792 -38.345)"/></g><g class="c"><path class="e" d="M108.427,72.464a1.864,1.864,0,1,0-1.864,1.864,1.865,1.865,0,0,0,1.864-1.864" transform="translate(-71.058 -47.915)"/></g><g class="c"><path class="d" d="M60.762,170.833H8.611L0,111.1H69.373Zm-50-2.474H58.641l7.872-54.785H2.86Z" transform="translate(0 -75.401)"/></g><g class="c"><path class="d" d="M38.513,297a1.613,1.613,0,0,1-.386-.064,1.245,1.245,0,0,1-.771-1.574l1.767-5.238a1.24,1.24,0,1,1,2.346.8L39.7,296.169a1.276,1.276,0,0,1-1.189.835" transform="translate(-25.307 -196.334)"/></g><g class="c"><path class="d" d="M168.413,297a1.276,1.276,0,0,1-1.189-.835l-1.767-5.237a1.24,1.24,0,1,1,2.346-.8l1.767,5.238a1.245,1.245,0,0,1-.771,1.574,1.611,1.611,0,0,1-.386.064" transform="translate(-112.246 -196.334)"/></g><g class="c"><path class="d" d="M100.81,299.736h-.064a1.2,1.2,0,0,1-1.157-1.285l.418-7.9a1.223,1.223,0,1,1,2.442.129l-.418,7.9a1.187,1.187,0,0,1-1.221,1.157" transform="translate(-67.586 -196.399)"/></g><g class="c"><path class="d" d="M99.317,12.83a1.881,1.881,0,0,1-.418-.064,1.228,1.228,0,0,1-.739-1.574l1.189-3.277L95.3,8.3,98.61.844A1.278,1.278,0,0,1,100.248.2a1.236,1.236,0,0,1,.611,1.639L99.252,5.407l3.7-.353-2.506,6.973a1.148,1.148,0,0,1-1.125.8" transform="translate(-64.678 -0.073)"/></g><g class="c"><path class="d" d="M90.733,122.5H60.4V111H90.733Zm-27.858-2.474H88.258v-6.555H62.874v6.555Z" transform="translate(-40.992 -75.333)"/></g><g class="c"><rect class="d" width="2.474" height="9.029" transform="translate(26.156 36.92)"/></g><g class="c"><rect class="d" width="2.474" height="9.029" transform="translate(33.321 36.92)"/></g><g class="c"><rect class="d" width="2.474" height="9.029" transform="translate(40.486 36.92)"/></g><g class="c"><path class="d" d="M84.807,194.913a1.607,1.607,0,1,1,1.607-1.607,1.611,1.611,0,0,1-1.607,1.607" transform="translate(-56.466 -130.103)"/></g><g class="c"><path class="d" d="M84.807,209.613a1.607,1.607,0,1,1,1.607-1.607,1.591,1.591,0,0,1-1.607,1.607" transform="translate(-56.466 -140.079)"/></g><g class="c"><path class="d" d="M110.879,199.669h-9.35a1.015,1.015,0,0,1-1.028-1.028v-5.912a1.015,1.015,0,0,1,1.028-1.028h9.35a1.015,1.015,0,0,1,1.028,1.028v5.912a1.057,1.057,0,0,1-1.028,1.028m-8.354-2.089h7.294v-3.856h-7.294Z" transform="translate(-68.207 -130.103)"/></g><g class="c"><path class="a" d="M38.491,260.056a1.219,1.219,0,0,1-1.221-1.093l-1-7.808a1.232,1.232,0,1,1,2.442-.321l1,7.808a1.23,1.23,0,0,1-1.06,1.382.289.289,0,0,1-.161.032" transform="translate(-24.61 -169.508)"/></g><g class="f"><path class="a" d="M31.956,207.434a1.219,1.219,0,0,1-1.221-1.092l-.161-1.285a1.232,1.232,0,1,1,2.442-.321l.161,1.285a1.23,1.23,0,0,1-1.06,1.382.29.29,0,0,1-.161.032" transform="translate(-20.742 -138.221)"/></g><g class="c"><path class="a" d="M24.566,148.445a1.219,1.219,0,0,1-1.221-1.092l-2.571-20.6a1.232,1.232,0,0,1,2.442-.321l2.571,20.6a1.23,1.23,0,0,1-1.06,1.382.29.29,0,0,1-.161.032" transform="translate(-14.091 -85.08)"/></g></g></g></svg>