<svg xmlns="http://www.w3.org/2000/svg" viewBox="824 9593 272 44.057"><defs><style>.a{fill:#ebf5ee;}.b{fill:#3dc2d8;}</style></defs><g transform="translate(824 9593)"><g transform="translate(51.034)"><path class="a" d="M113.1,59.681V28.671h8.077v5.047a11.471,11.471,0,0,1,9.656-5.518,15.056,15.056,0,0,1,3.971.6l-1.489,7.058A6.576,6.576,0,0,0,129.931,35c-4.693,0-8.754,3.636-8.754,13.645V59.638H113.1Z" transform="translate(-113.1 -16.138)"/><path class="a" d="M185.405,28.2c10.514,0,16.605,7.015,16.605,16s-6.092,16-16.605,16S168.8,53.18,168.8,44.2,174.892,28.2,185.405,28.2Zm0,25.45c5.189,0,8.167-4.363,8.167-9.453s-2.978-9.453-8.167-9.453-8.167,4.363-8.167,9.453S180.216,53.65,185.405,53.65Z" transform="translate(-143.667 -16.138)"/><path class="a" d="M265.532,29.3V60.311H257.5V29.3Z" transform="translate(-192.343 -16.767)"/><path class="a" d="M305.636,12.062a10.769,10.769,0,0,1,7.9,3.336V0h8.032V43.543h-8.032V40.335c-.9,1.583-3.881,3.678-7.9,3.678-9.882,0-14.936-6.459-14.936-16C290.7,18.521,295.754,12.062,305.636,12.062Zm1.083,25.45c4.2,0,7.536-3.336,7.536-9.453,0-6.159-3.294-9.453-7.536-9.453-4.2,0-7.581,3.336-7.581,9.453S302.522,37.512,306.719,37.512Z" transform="translate(-210.562)"/><path class="b" d="M395.238,1.2V36.873h19.267v7.4H386.8V1.2Z" transform="translate(-263.299 -0.687)"/><path class="b" d="M459.363,36.8c1.038-5.09,5.776-8.6,12.454-8.6,7.806,0,13.762,3.08,13.762,12.96V59.681h-6.633l-.857-3.935a12.4,12.4,0,0,1-10.062,4.448c-5.6,0-9.927-3.251-9.927-9.41s5.731-10.137,13.943-10.137h5.46V39.278c0-3.465-2.707-4.534-5.731-4.534-2.256,0-4.6.684-5.64,3.55Zm10.6,16.853c3.7,0,7.581-2.4,7.581-6.416v-.6h-5.37c-3.429,0-5.6,1.24-5.6,3.978A3.072,3.072,0,0,0,469.967,53.65Z" transform="translate(-302.427 -16.138)"/><path class="b" d="M550.328,44.014c-4.016,0-6.994-2.1-7.9-3.678v3.208H534.4V0h8.032V15.356a11.018,11.018,0,0,1,7.9-3.336c9.882,0,14.936,6.459,14.936,16S560.21,44.014,550.328,44.014Zm-1.083-25.45c-4.2,0-7.536,3.336-7.536,9.453,0,6.159,3.294,9.453,7.536,9.453,4.2,0,7.581-3.336,7.581-9.453S553.442,18.564,549.245,18.564Z" transform="translate(-344.298)"/></g><path class="a" d="M22.652,1.2H0L8.483,8.6H20.035c7.265,0,15.251,2.695,15.251,14.158,0,11.42-7.987,14.158-15.251,14.158H16.921V16.256l-8.438-7.7V44.23H22.7c10.694,0,21.163-6.459,21.163-21.515C43.814,7.616,33.391,1.2,22.652,1.2Z" transform="translate(0 -0.687)"/><ellipse class="b" cx="3.52" cy="3.336" rx="3.52" ry="3.336" transform="translate(21.614 13.559)"/></g></svg>