<svg xmlns="http://www.w3.org/2000/svg" viewBox="390 2164.107 176.823 346.893"><defs><style>.a{fill:#342442;}.b{fill:#ced9d2;}.c{fill:#3dc2d8;}</style></defs><g transform="translate(390 2108.007)"><g transform="translate(14.764 377.814)"><path class="a" d="M29.037,362.379A16.119,16.119,0,0,1,12.9,346.241V337.2h8.813v9.041a7.325,7.325,0,0,0,14.649,0V337.2h8.813v9.041A16.192,16.192,0,0,1,29.037,362.379Z" transform="translate(-12.9 -337.2)"/></g><g transform="translate(129.67 377.814)"><path class="a" d="M129.437,362.379A16.119,16.119,0,0,1,113.3,346.241V337.2h8.813v9.041a7.325,7.325,0,0,0,14.649,0V337.2h8.813v9.041A16.192,16.192,0,0,1,129.437,362.379Z" transform="translate(-113.3 -337.2)"/></g><g transform="translate(59.055 56.1)"><path class="a" d="M105.734,120.077a4.469,4.469,0,0,1-4.463-4.463V85.284a20.372,20.372,0,0,0-40.744,0v30.329a4.469,4.469,0,0,1-4.463,4.463,4.4,4.4,0,0,1-4.463-4.463V85.284a29.184,29.184,0,0,1,58.369,0v30.329A4.209,4.209,0,0,1,105.734,120.077Z" transform="translate(-51.6 -56.1)"/></g><g transform="translate(73.819 70.873)"><path class="a" d="M79.035,114.435a6.7,6.7,0,0,1-1.488-.229A4.433,4.433,0,0,1,74.8,108.6L78.92,96.81,64.5,98.3,76.174,71.631A4.433,4.433,0,1,1,84.3,75.179L78.806,88l13.162-1.373-8.7,24.835A4.544,4.544,0,0,1,79.035,114.435Z" transform="translate(-64.5 -69.008)"/></g><g transform="translate(0 110.463)"><path class="a" d="M176.823,375.3H0V191.954a88.354,88.354,0,0,1,176.708,0V375.3ZM8.813,366.373h159.2V191.954a79.542,79.542,0,0,0-159.083,0Z" transform="translate(0 -103.6)"/></g><g transform="translate(17.053 319.56)"><path class="b" d="M19.363,327.616a4.469,4.469,0,0,1-4.463-4.464V290.764a4.469,4.469,0,0,1,4.463-4.463,4.4,4.4,0,0,1,4.463,4.463v32.389A4.625,4.625,0,0,1,19.363,327.616Z" transform="translate(-14.9 -286.3)"/></g><g transform="translate(17.053 302.278)"><path class="b" d="M19.363,281.958a4.469,4.469,0,0,1-4.463-4.463v-1.831a4.469,4.469,0,0,1,4.463-4.463,4.4,4.4,0,0,1,4.463,4.463v1.831A4.544,4.544,0,0,1,19.363,281.958Z" transform="translate(-14.9 -271.2)"/></g><g transform="translate(17.053 224.682)"><path class="b" d="M19.363,225.145a4.469,4.469,0,0,1-4.463-4.463V207.863a4.469,4.469,0,0,1,4.463-4.463,4.4,4.4,0,0,1,4.463,4.463v12.818A4.544,4.544,0,0,1,19.363,225.145Z" transform="translate(-14.9 -203.4)"/></g><g transform="translate(17.053 131.636)"><path class="b" d="M19.363,207.936a4.469,4.469,0,0,1-4.463-4.463v-6.524h0c0-41.2,32.5-74.849,72.331-74.849a4.463,4.463,0,1,1,0,8.927c-35.021,0-63.519,29.528-63.519,65.922h0v6.524A4.373,4.373,0,0,1,19.363,207.936Z" transform="translate(-14.9 -122.1)"/></g><g transform="translate(8.813 255.24)"><g transform="translate(0 0.114)"><rect class="a" width="5.837" height="4.463"/></g><g transform="translate(11.33)"><path class="a" d="M154.137,234.563h-12.36V230.1h12.36Zm-17.739,0h-12.36V230.1H136.4Zm-17.739,0H106.3V230.1h12.36Zm-17.739,0H88.558V230.1h12.36Zm-17.739,0H70.818V230.1h12.36Zm-17.739,0H53.079V230.1h12.36v4.463Zm-17.739,0H35.339V230.1H47.7v4.463Zm-17.739,0H17.6V230.1H29.96Z" transform="translate(-17.6 -230.1)"/></g><g transform="translate(153.246 0.114)"><rect class="a" width="5.837" height="4.463"/></g></g><g transform="translate(90.414 179.475)"><path class="a" d="M101.775,209.45a22.775,22.775,0,1,1,22.775-22.775A22.761,22.761,0,0,1,101.775,209.45Zm0-36.738a13.963,13.963,0,1,0,13.963,13.963A14.019,14.019,0,0,0,101.775,172.713Z" transform="translate(-79 -163.9)"/><g transform="translate(18.998 16.137)"><circle class="c" cx="6.638" cy="6.638" r="6.638"/></g></g></g></svg>