<svg xmlns="http://www.w3.org/2000/svg" viewBox="1001.273 9697 57.627 57.627"><defs><style>.a{fill:#3dc2d8;}</style></defs><g transform="translate(1001.273 9697)"><path class="a" d="M28.813,0A28.814,28.814,0,1,0,57.627,28.814,28.846,28.846,0,0,0,28.813,0ZM41.667,22.219c.013.286.02.573.02.861,0,8.764-6.669,18.866-18.87,18.866a18.758,18.758,0,0,1-10.166-2.977,13.391,13.391,0,0,0,9.819-2.746,6.638,6.638,0,0,1-6.2-4.607,6.657,6.657,0,0,0,2.994-.111A6.633,6.633,0,0,1,13.949,25c0-.028,0-.057,0-.084a6.6,6.6,0,0,0,3,.829A6.642,6.642,0,0,1,14.9,16.893,18.831,18.831,0,0,0,28.57,23.824a6.636,6.636,0,0,1,11.3-6.05,13.238,13.238,0,0,0,4.213-1.61,6.662,6.662,0,0,1-2.92,3.67,13.185,13.185,0,0,0,3.809-1.043A13.34,13.34,0,0,1,41.667,22.219Z"/></g></svg>