<svg xmlns="http://www.w3.org/2000/svg" xmlns:xlink="http://www.w3.org/1999/xlink" viewBox="689 5041 251 251"><defs><style>.a{fill:#3dc2d8;stroke:#ebf5ee;stroke-width:5px;}.b{clip-path:url(#a);}.c{fill:#1b597f;}.d{fill:#7be0f1;}.e{fill:#ebf5ee;}</style><clipPath id="a"><rect width="127.9" height="190.517"/></clipPath></defs><g transform="translate(293 -447)"><path class="a" d="M130.5,7.5a123,123,0,1,1-123,123A123,123,0,0,1,130.5,7.5Z" transform="translate(391 5483)"/><g transform="translate(457 5518.083)"><g class="b"><path class="c" d="M126.2,84.114H9.2l.948-2.962A87.49,87.49,0,0,1,23,57.515C34.97,41.934,50.431,33.7,67.73,33.7s32.76,8.234,44.667,23.815a88.548,88.548,0,0,1,12.855,23.637ZM15.657,79.552H119.8A84.445,84.445,0,0,0,108.724,60.18c-11.2-14.573-24.94-21.919-40.994-21.919-15.995,0-29.8,7.405-40.994,21.919A84.444,84.444,0,0,0,15.657,79.552" transform="translate(-3.75 -13.736)"/></g><g class="b"><path class="d" d="M67.12,60.958a2.3,2.3,0,0,1-1.836-.889,2.325,2.325,0,0,1,.415-3.2,39.231,39.231,0,0,1,3.791-2.607,2.276,2.276,0,1,1,2.429,3.851c-1.185.711-2.31,1.54-3.436,2.37a2.018,2.018,0,0,1-1.363.474" transform="translate(-26.422 -21.978)"/></g><g class="b"><path class="d" d="M37.13,89.277a1.876,1.876,0,0,1-.948-.237,2.3,2.3,0,0,1-1.126-3.021,66.314,66.314,0,0,1,11.73-17.3,2.262,2.262,0,1,1,3.258,3.14A60.541,60.541,0,0,0,39.2,87.974a2.312,2.312,0,0,1-2.073,1.3" transform="translate(-14.204 -27.726)"/></g><g class="b"><path class="c" d="M99.889,80.078a11.789,11.789,0,1,1,11.789-11.789A11.782,11.782,0,0,1,99.889,80.078m0-19.016a7.227,7.227,0,1,0,7.227,7.227,7.256,7.256,0,0,0-7.227-7.227" transform="translate(-35.909 -23.029)"/></g><g class="b"><path class="e" d="M111.572,74.036a3.436,3.436,0,1,0-3.436,3.436,3.438,3.438,0,0,0,3.436-3.436" transform="translate(-42.675 -28.776)"/></g><g class="b"><path class="c" d="M112.024,221.228H15.876L0,111.1H127.9Zm-92.178-4.562h88.268l14.514-101H5.272Z" transform="translate(0 -45.284)"/></g><g class="b"><path class="c" d="M39.547,303.513a2.974,2.974,0,0,1-.711-.118,2.3,2.3,0,0,1-1.422-2.9l3.258-9.656A2.286,2.286,0,0,1,45,292.317l-3.258,9.656a2.352,2.352,0,0,1-2.192,1.54" transform="translate(-15.199 -117.913)"/></g><g class="b"><path class="c" d="M170.964,303.513a2.352,2.352,0,0,1-2.192-1.54l-3.258-9.656a2.286,2.286,0,0,1,4.325-1.481l3.258,9.656a2.3,2.3,0,0,1-1.422,2.9,2.972,2.972,0,0,1-.711.118" transform="translate(-67.412 -117.913)"/></g><g class="b"><path class="c" d="M101.845,308.469h-.118a2.215,2.215,0,0,1-2.133-2.37l.77-14.573a2.254,2.254,0,0,1,4.5.237l-.77,14.573a2.189,2.189,0,0,1-2.251,2.133" transform="translate(-40.59 -117.952)"/></g><g class="b"><path class="c" d="M102.705,23.562a3.467,3.467,0,0,1-.77-.118,2.264,2.264,0,0,1-1.363-2.9l2.192-6.043-7.464.711,6.1-13.744A2.357,2.357,0,0,1,104.423.281,2.279,2.279,0,0,1,105.549,3.3l-2.962,6.576,6.813-.652-4.621,12.855a2.117,2.117,0,0,1-2.073,1.481" transform="translate(-38.844 -0.044)"/></g><g class="b"><path class="c" d="M116.323,132.208H60.4V111h55.923Zm-51.361-4.562h46.8V115.562h-46.8v12.085Z" transform="translate(-24.619 -45.243)"/></g><g class="b"><rect class="c" width="4.562" height="16.647" transform="translate(48.222 68.067)"/></g><g class="b"><rect class="c" width="4.562" height="16.647" transform="translate(61.432 68.067)"/></g><g class="b"><rect class="c" width="4.562" height="16.647" transform="translate(74.643 68.067)"/></g><g class="b"><path class="c" d="M86.162,197.624a2.962,2.962,0,1,1,2.962-2.962,2.971,2.971,0,0,1-2.962,2.962" transform="translate(-33.912 -78.136)"/></g><g class="b"><path class="c" d="M86.162,212.324a2.962,2.962,0,1,1,2.962-2.962,2.933,2.933,0,0,1-2.962,2.962" transform="translate(-33.912 -84.128)"/></g><g class="b"><path class="c" d="M119.635,206.392H102.4a1.871,1.871,0,0,1-1.9-1.9V193.6a1.871,1.871,0,0,1,1.9-1.9h17.239a1.871,1.871,0,0,1,1.9,1.9v10.9a1.949,1.949,0,0,1-1.9,1.9m-15.4-3.851H117.68v-7.109H104.232Z" transform="translate(-40.963 -78.136)"/></g><g class="b"><path class="d" d="M40.372,268.741a2.248,2.248,0,0,1-2.251-2.014l-1.836-14.4a2.271,2.271,0,1,1,4.5-.592l1.836,14.4a2.267,2.267,0,0,1-1.955,2.547.534.534,0,0,1-.3.059" transform="translate(-14.78 -101.802)"/></g><g class="b"><path class="d" d="M33.132,210.616a2.248,2.248,0,0,1-2.251-2.014l-.3-2.37a2.271,2.271,0,0,1,4.5-.592l.3,2.37a2.267,2.267,0,0,1-1.955,2.547.534.534,0,0,1-.3.059" transform="translate(-12.457 -83.012)"/></g><g class="b"><path class="d" d="M27.775,167.919a2.248,2.248,0,0,1-2.251-2.014l-4.739-37.973a2.271,2.271,0,1,1,4.5-.592l4.739,37.973a2.267,2.267,0,0,1-1.955,2.547.534.534,0,0,1-.3.059" transform="translate(-8.462 -51.097)"/></g></g></g></svg>