<svg xmlns="http://www.w3.org/2000/svg" viewBox="2875.694 5657 21.606 27"><defs><style>.a{fill:#1b597f;}</style></defs><g transform="translate(2817.094 5646)"><path class="a" d="M135.325,21.8h-3.286c-.742,0-.987.485-.547,1.082l5.835,7.955a.93.93,0,0,0,1.59,0l5.835-7.955c.435-.6.2-1.082-.547-1.082h-3.481V12.344A1.36,1.36,0,0,0,139.364,11h-2.672a1.345,1.345,0,0,0-1.361,1.344V21.8Z" transform="translate(-68.62)"/><path class="a" d="M59.526,426.45a.973.973,0,0,1-.926-1.01v-2.025a.974.974,0,0,1,.926-1.015H79.28a.975.975,0,0,1,.926,1.015v2.025a.969.969,0,0,1-.926,1.01Z" transform="translate(0 -388.45)"/></g></svg>