<svg xmlns="http://www.w3.org/2000/svg" viewBox="843 5783.547 232.755 59.666"><defs><style>.a{fill:#203742;}.b{fill:#adb77b;}</style></defs><g transform="translate(843 5783.547)"><g transform="translate(0 0)"><path class="a" d="M46.778,59.308v-35.5L33.89,49.642H26.551L13.723,23.807v35.5H0V0H14.857L30.25,31.026,45.7,0H60.5V59.308Z" transform="translate(0 0)"/><path class="a" d="M135.017,53.1a21.869,21.869,0,0,1-15.334,6.205A26.782,26.782,0,0,1,108.824,57.1a26.4,26.4,0,0,1-8.89-6.146,28.668,28.668,0,0,1-6.026-9.487A32.342,32.342,0,0,1,91.7,29.236,28.874,28.874,0,0,1,93.908,17.9a28.443,28.443,0,0,1,6.146-9.308A29.459,29.459,0,0,1,109.3,2.327,30.574,30.574,0,0,1,135.017,3.4a21.932,21.932,0,0,1,9.129,9.367l-10.024,7.578a14.6,14.6,0,0,0-5.728-6.146,16.086,16.086,0,0,0-8.115-2.208,13.876,13.876,0,0,0-6.146,1.372,13.711,13.711,0,0,0-4.714,3.759,17.832,17.832,0,0,0-3.043,5.668,21.841,21.841,0,0,0-1.074,6.921,20.4,20.4,0,0,0,1.134,6.981,16.969,16.969,0,0,0,3.222,5.549,14.017,14.017,0,0,0,4.893,3.64,14.558,14.558,0,0,0,6.265,1.313c5.251,0,9.964-2.446,14.2-7.339v-1.79H123.681V28.341h22.494V58.89H135.017Zm11.157,6.325H135.017V57.935h11.157Z" transform="translate(-36.987 0)"/><path class="b" d="M97.388,19.3A29.745,29.745,0,0,0,91.6,37.021a32.342,32.342,0,0,0,2.208,12.231,28.879,28.879,0,0,0,3.58,6.563Z" transform="translate(-36.946 -7.785)"/></g><g transform="translate(113.007 28.281)"><path class="b" d="M212.013,75.98a11.611,11.611,0,0,1-7.637,2.8,15.278,15.278,0,0,1-5.728-1.074,13.482,13.482,0,0,1-4.773-3.1,15.549,15.549,0,0,1-3.282-5.012,17.2,17.2,0,0,1-1.193-6.742,16.035,16.035,0,0,1,1.193-6.086,15.5,15.5,0,0,1,3.341-4.893,16.962,16.962,0,0,1,5.012-3.282,16.5,16.5,0,0,1,6.265-1.193,17.461,17.461,0,0,1,4,.477,13.937,13.937,0,0,1,3.52,1.372,13.211,13.211,0,0,1,2.924,2.148,10.653,10.653,0,0,1,2.148,2.8l-6.325,4.833a7.179,7.179,0,0,0-2.745-2.924,7.518,7.518,0,0,0-3.878-1.134,6.227,6.227,0,0,0-2.8.6,6.533,6.533,0,0,0-2.148,1.671,8.918,8.918,0,0,0-1.432,2.566,9.708,9.708,0,0,0-.537,3.282,9.465,9.465,0,0,0,.537,3.282,8.189,8.189,0,0,0,1.432,2.566,6.415,6.415,0,0,0,2.267,1.671,6.749,6.749,0,0,0,2.924.6,8.6,8.6,0,0,0,6.5-3.043h-5.37V62.078h12.709V78.545h-6.981V75.98Z" transform="translate(-189.4 -47.4)"/><path class="b" d="M246.1,78.707V47.8h14.2a8.957,8.957,0,0,1,4.177.955,10.278,10.278,0,0,1,3.282,2.446,12.067,12.067,0,0,1,2.148,3.461,10,10,0,0,1,.776,3.878,11.076,11.076,0,0,1-1.193,5.012,10.126,10.126,0,0,1-3.282,3.819l6.5,11.336H263.1l-5.43-9.487h-3.162v9.487Zm8.472-16.885h5.37a1.763,1.763,0,0,0,1.432-.895,3.733,3.733,0,0,0,.656-2.446,3.351,3.351,0,0,0-.776-2.446A2.374,2.374,0,0,0,259.7,55.2h-5.131Z" transform="translate(-212.27 -47.561)"/><path class="b" d="M301.44,47.8H309.2l10.68,30.907h-8.592l-1.85-6.026H301.2l-1.85,6.026H290.7Zm6.623,19.212-2.745-9.606-2.864,9.606Z" transform="translate(-230.259 -47.561)"/><path class="b" d="M352.473,63.492V78.707H344V47.8h6.623l12.41,15.692V47.8h8.473V78.707h-6.742Z" transform="translate(-251.757 -47.561)"/></g></g></svg>