<?xml version="1.0" encoding="utf-8"?>
<!-- Generator: Adobe Illustrator 21.1.0, SVG Export Plug-In . SVG Version: 6.00 Build 0)  -->
<svg version="1.1" id="Camada_1" xmlns="http://www.w3.org/2000/svg" xmlns:xlink="http://www.w3.org/1999/xlink" x="0px" y="0px"
	 viewBox="0 0 722.5 244.4" style="enable-background:new 0 0 722.5 244.4;" xml:space="preserve">
<style type="text/css">
	.st0{fill:#203742;}
	.st1{fill:#ADB77B;}
</style>
<g transform="translate(599 215)">
	<g transform="translate(0 0)">
		<path class="st0" d="M-454.3-31v-109.8l-39.9,79.9h-22.7l-39.7-79.9V-31H-599v-183.5h46l47.6,96l47.8-96h45.8V-31H-454.3z"/>
		<path class="st0" d="M-295.7-50.2C-309.4-37.5-325.2-31-343.1-31c-11.6,0.1-23-2.2-33.6-6.8c-10.4-4.4-19.7-10.8-27.5-19
			c-8.1-8.5-14.4-18.4-18.6-29.4c-4.6-11.4-6.8-24-6.8-37.8c-0.1-12,2.2-24,6.8-35.1c4.4-10.8,10.8-20.5,19-28.8
			c8.2-8.2,17.9-14.8,28.6-19.4c11.2-4.8,23.4-7.3,35.6-7.2c16.8,0,31.4,3.5,43.9,10.5c12.1,6.6,22,16.7,28.2,29l-31,23.4
			c-3.9-7.9-10.1-14.5-17.7-19c-7.6-4.5-16.3-6.8-25.1-6.8c-6.6-0.1-13.1,1.4-19,4.2c-5.7,2.7-10.6,6.7-14.6,11.6
			c-4.2,5.2-7.4,11.2-9.4,17.5c-2.3,6.9-3.4,14.1-3.3,21.4c-0.1,7.3,1.1,14.7,3.5,21.6c2.2,6.3,5.6,12.1,10,17.2
			c4.2,4.8,9.3,8.7,15.1,11.3c6.1,2.8,12.7,4.2,19.4,4.1c16.2,0,30.8-7.6,43.9-22.7v-5.5h-35.1v-30.1h69.6v94.5h-34.5V-50.2z
			 M-261.2-30.6h-34.5v-4.6h34.5V-30.6z"/>
		<path class="st1" d="M-412-178.9c-4.5,6.1-8.2,12.7-11.1,19.8c-4.6,11.1-6.9,23-6.8,35.1c0,13.8,2.2,26.4,6.8,37.8
			c2.8,7.2,6.5,14,11.1,20.3V-178.9z"/>
	</g>
	<g>
		<path class="st0" d="M-243,0.5c-0.9,0-1.6-0.2-2.3-0.5c-0.7-0.3-1.3-0.8-1.7-1.3c-0.5-0.6-0.8-1.2-1.1-2c-0.2-0.7-0.4-1.5-0.4-2.4
			c0-1.2,0.2-2.3,0.7-3.4c0.5-1.1,1.1-2,1.9-2.9c0.8-0.8,1.7-1.5,2.8-2c1-0.5,2.2-0.7,3.4-0.7c1.3,0,2.4,0.3,3.2,0.9
			c0.8,0.6,1.4,1.5,1.7,2.5l-1.9,0.6c-0.2-0.7-0.6-1.3-1.2-1.7c-0.6-0.4-1.3-0.6-2.1-0.6c-0.8,0-1.6,0.2-2.4,0.6
			c-0.8,0.4-1.4,0.9-2,1.5s-1.1,1.4-1.4,2.2c-0.4,0.9-0.5,1.8-0.5,2.7c0,0.7,0.1,1.3,0.3,1.9c0.2,0.6,0.4,1.1,0.8,1.5
			c0.3,0.4,0.7,0.8,1.2,1c0.5,0.2,1,0.4,1.6,0.4c0.4,0,0.9-0.1,1.4-0.2c0.5-0.1,0.9-0.3,1.3-0.5c0.4-0.2,0.8-0.5,1.1-0.8
			c0.3-0.3,0.6-0.6,0.7-0.9l1.8,0.6c-0.3,0.5-0.7,1-1.1,1.4c-0.5,0.4-1,0.8-1.6,1.1s-1.2,0.6-1.8,0.8C-241.7,0.5-242.3,0.5-243,0.5z
			"/>
		<path class="st0" d="M-230-20.1h1.9l-2,9.1c0.8-1.1,1.7-2,2.8-2.6c1.1-0.6,2.2-0.9,3.4-0.9c1.2,0,2,0.3,2.5,1
			c0.5,0.7,0.8,1.6,0.8,2.7c0,0.7-0.1,1.6-0.3,2.6l-1.8,8.5h-1.9l1.7-8.1c0.2-0.8,0.3-1.5,0.3-2.1c0-1.9-0.8-2.8-2.4-2.8
			c-0.5,0-1,0.1-1.6,0.3c-0.5,0.2-1.1,0.5-1.6,0.9c-0.5,0.4-1,0.8-1.4,1.3c-0.4,0.5-0.8,1-1.1,1.6l-1.9,8.9h-1.9L-230-20.1z"/>
		<path class="st0" d="M-213.1,0.5c-0.8,0-1.5-0.2-2.2-0.5s-1.2-0.8-1.6-1.3c-0.4-0.6-0.8-1.2-1-1.9c-0.2-0.7-0.3-1.5-0.3-2.3
			c0-1.2,0.2-2.3,0.7-3.3c0.4-1.1,1-2,1.8-2.9c0.7-0.8,1.6-1.5,2.6-2c1-0.5,2-0.8,3-0.8c1.2,0,2.1,0.3,2.9,1
			c0.8,0.6,1.3,1.4,1.6,2.3l0.7-3h1.9l-2.6,12c0,0.1-0.1,0.3-0.1,0.4c0,0.3,0.2,0.4,0.5,0.4l-0.4,1.7c-0.1,0-0.3,0-0.4,0.1
			c-0.1,0-0.2,0-0.3,0c-0.4,0-0.7-0.2-1-0.3c-0.2-0.2-0.3-0.5-0.3-0.8c0-0.1,0-0.3,0.1-0.6c0-0.2,0.1-0.6,0.2-1.2
			c-0.7,0.9-1.6,1.7-2.7,2.3C-211.1,0.3-212.1,0.5-213.1,0.5z M-212.3-1.1c0.5,0,1-0.1,1.5-0.3c0.5-0.2,1.1-0.4,1.5-0.8
			c0.5-0.3,0.9-0.7,1.3-1.1c0.4-0.4,0.7-0.9,0.9-1.4l0.9-4.5c-0.1-0.5-0.2-1-0.4-1.4c-0.2-0.4-0.5-0.8-0.9-1.1s-0.8-0.6-1.2-0.8
			c-0.4-0.2-0.9-0.3-1.4-0.3c-0.8,0-1.6,0.2-2.4,0.6c-0.8,0.4-1.4,1-2,1.6c-0.6,0.7-1,1.4-1.4,2.3c-0.3,0.8-0.5,1.7-0.5,2.5
			c0,0.7,0.1,1.3,0.3,1.8c0.2,0.6,0.5,1.1,0.8,1.5c0.4,0.4,0.8,0.8,1.3,1C-213.5-1.2-212.9-1.1-212.3-1.1z"/>
		<path class="st0" d="M-199-14.2h1.7l-0.6,2.8c0.7-0.9,1.6-1.6,2.6-2.2c1-0.6,2.1-0.8,3.1-0.8c0.8,0,1.5,0.2,2.2,0.5
			s1.2,0.8,1.6,1.3c0.4,0.6,0.8,1.2,1,1.9c0.2,0.7,0.3,1.5,0.3,2.3c0,1.1-0.2,2.2-0.6,3.3c-0.4,1.1-1,2-1.8,2.9
			c-0.7,0.8-1.6,1.5-2.6,2c-1,0.5-2,0.8-3.1,0.8c-1.2,0-2.1-0.3-2.9-0.9c-0.8-0.6-1.3-1.4-1.6-2.4l-1.9,8.9h-1.9L-199-14.2z
			 M-195.2-1.1c0.8,0,1.6-0.2,2.4-0.6c0.8-0.4,1.4-1,2-1.6s1-1.4,1.4-2.2c0.3-0.8,0.5-1.7,0.5-2.5c0-0.6-0.1-1.3-0.3-1.8
			c-0.2-0.6-0.5-1.1-0.8-1.5c-0.4-0.4-0.8-0.8-1.3-1c-0.5-0.2-1-0.4-1.6-0.4c-0.4,0-0.9,0.1-1.5,0.3c-0.5,0.2-1,0.5-1.5,0.8
			c-0.5,0.3-1,0.7-1.4,1.1c-0.4,0.4-0.7,0.9-0.9,1.4l-0.9,4.5c0.1,0.5,0.3,1,0.5,1.4c0.2,0.4,0.5,0.8,0.9,1.2
			c0.3,0.3,0.7,0.6,1.2,0.8C-196.1-1.2-195.7-1.1-195.2-1.1z"/>
		<path class="st0" d="M-179.9,0.5c-0.8,0-1.5-0.2-2.2-0.5c-0.6-0.3-1.2-0.8-1.6-1.3s-0.8-1.2-1-1.9c-0.2-0.7-0.3-1.5-0.3-2.3
			c0-1.2,0.2-2.3,0.7-3.3c0.4-1.1,1-2,1.8-2.9c0.7-0.8,1.6-1.5,2.6-2c1-0.5,2-0.8,3-0.8c1.2,0,2.1,0.3,2.9,1
			c0.8,0.6,1.3,1.4,1.6,2.3l0.7-3h1.9l-2.6,12c0,0.1-0.1,0.3-0.1,0.4c0,0.3,0.2,0.4,0.5,0.4l-0.4,1.7c-0.1,0-0.3,0-0.4,0.1
			c-0.1,0-0.2,0-0.3,0c-0.4,0-0.7-0.2-1-0.3c-0.2-0.2-0.3-0.5-0.3-0.8c0-0.1,0-0.3,0.1-0.6c0-0.2,0.1-0.6,0.2-1.2
			c-0.7,0.9-1.6,1.7-2.7,2.3C-177.9,0.3-178.9,0.5-179.9,0.5z M-179.2-1.1c0.5,0,1-0.1,1.5-0.3c0.5-0.2,1.1-0.4,1.5-0.8
			c0.5-0.3,0.9-0.7,1.3-1.1c0.4-0.4,0.7-0.9,0.9-1.4l0.9-4.5c-0.1-0.5-0.2-1-0.4-1.4c-0.2-0.4-0.5-0.8-0.9-1.1s-0.8-0.6-1.2-0.8
			c-0.4-0.2-0.9-0.3-1.4-0.3c-0.8,0-1.6,0.2-2.4,0.6c-0.8,0.4-1.4,1-2,1.6c-0.6,0.7-1,1.4-1.4,2.3c-0.3,0.8-0.5,1.7-0.5,2.5
			c0,0.7,0.1,1.3,0.3,1.8c0.2,0.6,0.5,1.1,0.8,1.5c0.4,0.4,0.8,0.8,1.3,1C-180.3-1.2-179.8-1.1-179.2-1.1z"/>
		<path class="st0" d="M-164.3,0.5c-1.1,0-2.1-0.2-3-0.6c-0.9-0.4-1.7-0.9-2.3-1.6l1.1-1.3c1.2,1.3,2.7,2,4.5,2c1.2,0,2.2-0.3,3-0.8
			s1.2-1.3,1.2-2.3c0-0.3-0.1-0.6-0.2-0.8c-0.1-0.2-0.4-0.4-0.7-0.6c-0.3-0.2-0.7-0.3-1.1-0.5c-0.4-0.1-1-0.3-1.5-0.4
			c-0.7-0.2-1.2-0.4-1.7-0.5c-0.5-0.2-0.9-0.4-1.2-0.6c-0.3-0.2-0.6-0.5-0.7-0.8c-0.2-0.3-0.3-0.7-0.3-1.1c0-0.8,0.2-1.5,0.5-2.1
			c0.3-0.6,0.8-1.2,1.4-1.6c0.6-0.4,1.2-0.8,2-1c0.8-0.2,1.5-0.3,2.4-0.3c1.1,0,2,0.2,2.8,0.5c0.8,0.4,1.4,0.8,1.8,1.4l-1.2,1.1
			c-0.4-0.6-0.9-1-1.6-1.3c-0.7-0.3-1.4-0.4-2.2-0.4c-0.5,0-1,0.1-1.5,0.2c-0.5,0.1-0.9,0.3-1.3,0.6c-0.4,0.3-0.7,0.6-0.9,1
			c-0.2,0.4-0.3,0.9-0.3,1.4c0,0.6,0.2,1,0.7,1.3c0.5,0.3,1.2,0.5,2.2,0.8c1.5,0.4,2.7,0.8,3.4,1.3c0.8,0.5,1.2,1.2,1.2,2.2
			c0,0.7-0.2,1.4-0.5,2c-0.3,0.6-0.8,1.1-1.3,1.6c-0.6,0.4-1.2,0.8-2,1C-162.5,0.4-163.4,0.5-164.3,0.5z"/>
		<path class="st0" d="M-143.3,0.5c-0.8,0-1.5-0.2-2.2-0.5c-0.6-0.3-1.2-0.8-1.6-1.3c-0.4-0.6-0.8-1.2-1-1.9
			c-0.2-0.7-0.3-1.5-0.3-2.3c0-1.2,0.2-2.3,0.7-3.3c0.4-1.1,1-2,1.8-2.9c0.7-0.8,1.6-1.5,2.6-2c1-0.5,2-0.8,3.1-0.8
			c1.2,0,2.1,0.3,2.9,1c0.8,0.6,1.3,1.4,1.6,2.3l1.9-8.9h1.9l-3.8,17.9c0,0.2-0.1,0.3-0.1,0.3c0,0.3,0.2,0.5,0.5,0.5l-0.4,1.7
			c-0.1,0-0.3,0-0.4,0c-0.1,0-0.2,0-0.3,0c-0.4,0-0.8-0.1-1-0.3c-0.2-0.2-0.3-0.5-0.3-0.8c0-0.1,0-0.3,0.1-0.5
			c0-0.2,0.1-0.6,0.2-1.2c-0.7,0.9-1.6,1.7-2.7,2.3C-141.2,0.3-142.3,0.5-143.3,0.5z M-142.5-1.1c0.4,0,0.9-0.1,1.5-0.3
			s1-0.4,1.5-0.8c0.5-0.3,1-0.7,1.4-1.1c0.4-0.4,0.7-0.9,0.9-1.4l0.9-4.5c-0.1-0.5-0.2-1-0.4-1.4c-0.2-0.4-0.5-0.8-0.9-1.2
			c-0.4-0.3-0.8-0.6-1.2-0.8c-0.4-0.2-0.9-0.3-1.4-0.3c-0.8,0-1.6,0.2-2.4,0.6c-0.8,0.4-1.4,1-2,1.6c-0.6,0.7-1,1.4-1.4,2.2
			c-0.3,0.8-0.5,1.7-0.5,2.5c0,0.6,0.1,1.3,0.3,1.8c0.2,0.6,0.5,1.1,0.8,1.5c0.4,0.4,0.8,0.8,1.3,1C-143.7-1.2-143.1-1.1-142.5-1.1z
			"/>
		<path class="st0" d="M-126.2,0.5c-0.9,0-1.7-0.2-2.4-0.5c-0.7-0.3-1.3-0.8-1.8-1.3c-0.5-0.6-0.8-1.2-1.1-2
			c-0.2-0.7-0.4-1.5-0.4-2.4c0-1.2,0.2-2.3,0.7-3.3c0.4-1.1,1.1-2,1.8-2.8c0.8-0.8,1.7-1.5,2.8-2c1.1-0.5,2.2-0.8,3.5-0.8
			c0.6,0,1.2,0.1,1.8,0.2c0.6,0.2,1.1,0.4,1.5,0.7c0.4,0.3,0.7,0.7,1,1.2c0.2,0.5,0.4,1.1,0.4,1.7c0,1.4-0.6,2.5-1.9,3.2
			c-1.3,0.7-3.2,1.1-5.9,1.1c-0.5,0-1.1,0-1.7,0c-0.6,0-1.3-0.1-2-0.1c0,0.1,0,0.3,0,0.4c0,0.1,0,0.3,0,0.4c0,0.6,0.1,1.2,0.2,1.8
			c0.2,0.6,0.4,1.1,0.8,1.5c0.3,0.4,0.8,0.8,1.3,1c0.5,0.2,1.1,0.4,1.8,0.4c0.4,0,0.9-0.1,1.4-0.2c0.5-0.1,0.9-0.3,1.3-0.5
			c0.4-0.2,0.8-0.5,1.2-0.8s0.6-0.7,0.9-1.1l1.6,0.5c-0.3,0.5-0.7,1-1.2,1.5c-0.5,0.5-1,0.8-1.6,1.2c-0.6,0.3-1.2,0.6-1.8,0.8
			C-124.9,0.5-125.5,0.5-126.2,0.5z M-123.2-13c-0.8,0-1.6,0.1-2.3,0.4c-0.7,0.3-1.3,0.7-1.8,1.2c-0.5,0.5-1,1-1.4,1.7
			c-0.4,0.6-0.7,1.3-0.8,2c0.7,0,1.3,0.1,1.9,0.1c0.6,0,1.1,0,1.6,0c1.1,0,2-0.1,2.8-0.2c0.8-0.1,1.4-0.4,1.8-0.6
			c0.5-0.3,0.8-0.6,1-0.9c0.2-0.4,0.3-0.8,0.3-1.2c0-0.8-0.3-1.4-0.9-1.8C-121.7-12.8-122.4-13-123.2-13z"/>
		<path class="st0" d="M-106.1,6.5c-0.8,0-1.5-0.1-2.1-0.2c-0.6-0.2-1.1-0.4-1.6-0.7c-0.4-0.3-0.8-0.6-1.1-1
			c-0.3-0.4-0.6-0.9-0.7-1.4l1.3-0.9c0.4,0.9,0.9,1.6,1.7,2c0.8,0.4,1.7,0.7,2.8,0.7c0.7,0,1.3-0.1,2-0.3c0.6-0.2,1.2-0.5,1.7-0.9
			c0.5-0.4,1-0.9,1.4-1.4c0.4-0.6,0.7-1.3,0.8-2l0.6-2.9c-0.4,0.5-0.8,0.9-1.2,1.3c-0.4,0.4-0.9,0.7-1.4,0.9c-0.5,0.3-1,0.5-1.5,0.6
			c-0.5,0.1-1,0.2-1.5,0.2c-0.8,0-1.5-0.2-2.1-0.5c-0.6-0.3-1.2-0.8-1.6-1.3c-0.4-0.5-0.8-1.2-1-1.9c-0.2-0.7-0.3-1.5-0.3-2.3
			c0-1.1,0.2-2.2,0.7-3.3s1-2,1.8-2.9c0.8-0.8,1.6-1.5,2.6-2c1-0.5,2-0.8,3.1-0.8c1.2,0,2.1,0.3,2.9,0.9c0.7,0.6,1.3,1.4,1.7,2.4
			l0.6-3h1.7L-98,0.3c-0.2,1-0.6,1.9-1.1,2.7c-0.5,0.8-1.1,1.4-1.9,1.9c-0.7,0.5-1.5,0.9-2.4,1.2C-104.3,6.4-105.2,6.5-106.1,6.5z
			 M-104.1-1.1c0.5,0,1.1-0.1,1.6-0.3c0.6-0.2,1.1-0.5,1.6-0.8c0.5-0.3,0.9-0.7,1.3-1.2s0.6-0.9,0.8-1.3l0.9-4.5
			c-0.1-0.5-0.2-1-0.5-1.4c-0.2-0.4-0.5-0.8-0.9-1.1c-0.3-0.3-0.7-0.6-1.2-0.8c-0.4-0.2-0.9-0.3-1.4-0.3c-0.9,0-1.7,0.2-2.5,0.6
			c-0.8,0.4-1.4,1-2,1.7c-0.6,0.7-1,1.4-1.3,2.3c-0.3,0.8-0.5,1.6-0.5,2.4c0,0.6,0.1,1.3,0.3,1.8c0.2,0.6,0.5,1.1,0.8,1.5
			c0.4,0.4,0.8,0.8,1.3,1C-105.2-1.2-104.7-1.1-104.1-1.1z"/>
		<path class="st0" d="M-90.9-14.2h1.8l-0.8,3.5c0.7-1.1,1.5-1.9,2.5-2.5c0.9-0.6,1.9-1,2.8-1c0.1,0,0.3,0,0.4,0c0.1,0,0.2,0,0.3,0
			l-0.4,1.6c-1.2,0-2.3,0.4-3.4,1.1c-1,0.7-1.9,1.6-2.5,2.8l-1.9,9h-1.9L-90.9-14.2z"/>
		<path class="st0" d="M-79.4,0.5c-0.8,0-1.5-0.2-2.2-0.5c-0.6-0.3-1.2-0.8-1.6-1.3c-0.4-0.6-0.8-1.2-1-1.9s-0.3-1.5-0.3-2.3
			c0-1.2,0.2-2.3,0.7-3.3c0.4-1.1,1-2,1.8-2.9c0.7-0.8,1.6-1.5,2.6-2c1-0.5,2-0.8,3-0.8c1.2,0,2.1,0.3,2.9,1
			c0.8,0.6,1.3,1.4,1.6,2.3l0.7-3h1.9l-2.6,12c0,0.1-0.1,0.3-0.1,0.4c0,0.3,0.2,0.4,0.5,0.4l-0.4,1.7c-0.1,0-0.3,0-0.4,0.1
			c-0.1,0-0.2,0-0.3,0c-0.4,0-0.7-0.2-1-0.3C-73.9-0.2-74-0.4-74-0.8c0-0.1,0-0.3,0.1-0.6c0-0.2,0.1-0.6,0.2-1.2
			c-0.7,0.9-1.6,1.7-2.7,2.3C-77.4,0.3-78.4,0.5-79.4,0.5z M-78.7-1.1c0.5,0,1-0.1,1.5-0.3c0.5-0.2,1.1-0.4,1.5-0.8
			c0.5-0.3,0.9-0.7,1.3-1.1c0.4-0.4,0.7-0.9,0.9-1.4l0.9-4.5c-0.1-0.5-0.2-1-0.4-1.4c-0.2-0.4-0.5-0.8-0.9-1.1
			c-0.4-0.3-0.8-0.6-1.2-0.8c-0.4-0.2-0.9-0.3-1.4-0.3c-0.8,0-1.6,0.2-2.4,0.6c-0.8,0.4-1.4,1-2,1.6c-0.6,0.7-1,1.4-1.4,2.3
			c-0.3,0.8-0.5,1.7-0.5,2.5c0,0.7,0.1,1.3,0.3,1.8c0.2,0.6,0.5,1.1,0.8,1.5c0.4,0.4,0.8,0.8,1.3,1C-79.8-1.2-79.3-1.1-78.7-1.1z"/>
		<path class="st0" d="M-65.3-14.2h1.8l-0.7,3.3c0.4-0.5,0.8-1,1.4-1.4c0.5-0.4,1-0.8,1.6-1.1c0.6-0.3,1.2-0.6,1.8-0.7
			c0.6-0.2,1.2-0.2,1.8-0.2c1.1,0,1.9,0.3,2.4,0.9c0.5,0.6,0.7,1.5,0.7,2.5c0,0.4,0,0.9-0.1,1.3c-0.1,0.5-0.2,1-0.3,1.5l-1.8,8.5
			h-1.9l1.7-8.1c0.2-0.9,0.3-1.7,0.3-2.4c0-1.7-0.7-2.6-2.2-2.6c-0.5,0-1.1,0.1-1.6,0.3c-0.6,0.2-1.1,0.5-1.6,0.9
			c-0.5,0.4-1,0.8-1.5,1.3c-0.4,0.5-0.8,1.1-1.1,1.7l-1.9,8.9h-1.9L-65.3-14.2z"/>
		<path class="st0" d="M-49.8-14.2h1.9l-3.1,14.5h-1.9L-49.8-14.2z M-48.5-20.1h1.9l-0.6,2.8h-1.9L-48.5-20.1z"/>
		<path class="st0" d="M-43.4,0.4c-0.7,0-1.3-0.2-1.7-0.5c-0.5-0.3-0.7-0.9-0.7-1.6c0-0.2,0-0.4,0.1-0.7l2.2-10.4h-1.9l0.3-1.5h1.9
			l1.1-4.9h1.9l-1.1,4.9h3.2l-0.3,1.5h-3.1l-2,9.4c0,0.2-0.1,0.4-0.1,0.5c0,0.1,0,0.2,0,0.3c0,0.4,0.1,0.7,0.4,0.9
			c0.3,0.2,0.6,0.3,0.9,0.3c0.5,0,1-0.1,1.4-0.3c0.4-0.2,0.7-0.3,0.8-0.4l0.2,1.5c-0.2,0.2-0.7,0.4-1.3,0.6
			C-41.9,0.3-42.6,0.4-43.4,0.4z"/>
		<path class="st0" d="M-32.4,0.5c-0.9,0-1.6-0.2-2.3-0.5s-1.2-0.8-1.7-1.3c-0.5-0.5-0.8-1.2-1.1-1.9c-0.3-0.7-0.4-1.5-0.4-2.4
			c0-1.2,0.2-2.3,0.7-3.4c0.5-1.1,1.1-2,1.9-2.9c0.8-0.8,1.7-1.5,2.8-2c1-0.5,2.1-0.8,3.3-0.8c0.9,0,1.6,0.2,2.3,0.5
			c0.7,0.3,1.2,0.8,1.7,1.3c0.5,0.5,0.8,1.2,1.1,1.9c0.2,0.7,0.4,1.5,0.4,2.4c0,1.2-0.2,2.3-0.7,3.3c-0.5,1.1-1.1,2-1.9,2.9
			c-0.8,0.8-1.7,1.5-2.8,2C-30.2,0.3-31.3,0.5-32.4,0.5z M-32.1-1.1c0.8,0,1.5-0.2,2.3-0.6c0.8-0.4,1.4-0.9,2-1.5s1.1-1.4,1.4-2.2
			c0.4-0.8,0.6-1.7,0.6-2.7c0-0.6-0.1-1.3-0.3-1.8c-0.2-0.6-0.5-1.1-0.8-1.5c-0.3-0.4-0.8-0.7-1.2-1c-0.5-0.2-1-0.4-1.6-0.4
			c-0.8,0-1.5,0.2-2.3,0.6c-0.8,0.4-1.4,0.9-2,1.5c-0.6,0.7-1.1,1.4-1.5,2.3c-0.4,0.9-0.6,1.8-0.6,2.7c0,0.7,0.1,1.3,0.3,1.8
			c0.2,0.6,0.5,1.1,0.8,1.5c0.3,0.4,0.8,0.7,1.2,1C-33.2-1.2-32.6-1.1-32.1-1.1z"/>
		<path class="st0" d="M-9.4,0.5c-0.9,0-1.7-0.2-2.4-0.5c-0.7-0.3-1.3-0.8-1.8-1.3c-0.5-0.6-0.8-1.2-1.1-2C-14.8-3.9-15-4.7-15-5.6
			c0-1.2,0.2-2.3,0.7-3.3c0.4-1.1,1.1-2,1.8-2.8c0.8-0.8,1.7-1.5,2.8-2c1.1-0.5,2.2-0.8,3.5-0.8c0.6,0,1.2,0.1,1.8,0.2
			c0.6,0.2,1.1,0.4,1.5,0.7c0.4,0.3,0.7,0.7,1,1.2c0.2,0.5,0.4,1.1,0.4,1.7c0,1.4-0.6,2.5-1.9,3.2c-1.3,0.7-3.2,1.1-5.8,1.1
			c-0.5,0-1.1,0-1.7,0c-0.6,0-1.3-0.1-2-0.1c0,0.1,0,0.3,0,0.4c0,0.1,0,0.3,0,0.4c0,0.6,0.1,1.2,0.3,1.8c0.2,0.6,0.4,1.1,0.8,1.5
			c0.3,0.4,0.8,0.8,1.3,1C-10.3-1-9.7-0.9-9-0.9c0.4,0,0.9-0.1,1.4-0.2s0.9-0.3,1.3-0.5c0.4-0.2,0.8-0.5,1.2-0.8
			c0.4-0.3,0.6-0.7,0.9-1.1l1.6,0.5c-0.3,0.5-0.7,1-1.2,1.5c-0.5,0.5-1,0.8-1.6,1.2s-1.2,0.6-1.8,0.8C-8,0.5-8.7,0.5-9.4,0.5z
			 M-6.4-13c-0.8,0-1.6,0.1-2.3,0.4c-0.7,0.3-1.3,0.7-1.8,1.2c-0.5,0.5-1,1-1.4,1.7c-0.4,0.6-0.6,1.3-0.8,2c0.7,0,1.3,0.1,1.9,0.1
			c0.6,0,1.1,0,1.6,0c1.1,0,2-0.1,2.8-0.2s1.4-0.4,1.8-0.6c0.5-0.3,0.8-0.6,1-0.9c0.2-0.4,0.3-0.8,0.3-1.2c0-0.8-0.3-1.4-0.9-1.8
			C-4.8-12.8-5.6-13-6.4-13z"/>
		<path class="st0" d="M9.5-14.2h1.8L10.5-11c0.8-1.1,1.7-2,2.7-2.6c1-0.6,2.1-0.9,3.2-0.9c1.1,0,1.9,0.3,2.5,1
			c0.5,0.7,0.8,1.6,0.8,2.8c0.8-1.2,1.8-2.2,2.8-2.8c1.1-0.6,2.2-1,3.3-1c1.2,0,2,0.3,2.5,0.9c0.5,0.6,0.7,1.5,0.7,2.6
			c0,0.8-0.1,1.7-0.3,2.7L27,0.3h-1.9l1.7-8.1C26.9-8.3,26.9-8.7,27-9c0-0.4,0.1-0.7,0.1-1c0-1.8-0.7-2.7-2.2-2.7
			c-0.5,0-1,0.1-1.5,0.3c-0.5,0.2-1,0.5-1.5,0.9c-0.5,0.4-0.9,0.8-1.3,1.3c-0.4,0.5-0.7,1.1-1,1.7l-1.9,8.9h-1.9l1.7-8.1
			c0.1-0.5,0.2-0.9,0.2-1.3c0.1-0.4,0.1-0.7,0.1-1c0-1.7-0.7-2.6-2.2-2.6c-1,0-2,0.4-3,1.1c-1,0.8-1.8,1.8-2.4,3L8.3,0.3H6.4
			L9.5-14.2z"/>
		<path class="st0" d="M36.5,0.5c-0.8,0-1.5-0.2-2.2-0.5s-1.2-0.8-1.6-1.3c-0.4-0.6-0.8-1.2-1-1.9c-0.2-0.7-0.3-1.5-0.3-2.3
			c0-1.2,0.2-2.3,0.7-3.3c0.4-1.1,1-2,1.8-2.9c0.7-0.8,1.6-1.5,2.6-2c1-0.5,2-0.8,3-0.8c1.2,0,2.1,0.3,2.9,1
			c0.8,0.6,1.3,1.4,1.6,2.3l0.7-3h1.9l-2.6,12c0,0.1-0.1,0.3-0.1,0.4c0,0.3,0.2,0.4,0.5,0.4L44,0.3c-0.1,0-0.3,0-0.4,0.1
			c-0.1,0-0.2,0-0.3,0c-0.4,0-0.7-0.2-1-0.3C42.1-0.2,42-0.4,42-0.8c0-0.1,0-0.3,0.1-0.6c0-0.2,0.1-0.6,0.2-1.2
			c-0.7,0.9-1.6,1.7-2.7,2.3C38.5,0.3,37.5,0.5,36.5,0.5z M37.3-1.1c0.5,0,1-0.1,1.5-0.3c0.5-0.2,1.1-0.4,1.5-0.8
			c0.5-0.3,0.9-0.7,1.3-1.1c0.4-0.4,0.7-0.9,0.9-1.4l0.9-4.5c-0.1-0.5-0.2-1-0.4-1.4c-0.2-0.4-0.5-0.8-0.9-1.1s-0.8-0.6-1.2-0.8
			c-0.4-0.2-0.9-0.3-1.4-0.3c-0.8,0-1.6,0.2-2.4,0.6c-0.8,0.4-1.4,1-2,1.6c-0.6,0.7-1,1.4-1.4,2.3c-0.3,0.8-0.5,1.7-0.5,2.5
			c0,0.7,0.1,1.3,0.3,1.8c0.2,0.6,0.5,1.1,0.8,1.5c0.4,0.4,0.8,0.8,1.3,1C36.1-1.2,36.7-1.1,37.3-1.1z M40.4-17l-1.2-0.5l2.1-2.6h2
			L40.4-17z"/>
		<path class="st0" d="M50.6-14.2h1.8l-0.8,3.5c0.7-1.1,1.5-1.9,2.5-2.5c0.9-0.6,1.9-1,2.8-1c0.1,0,0.3,0,0.4,0c0.1,0,0.2,0,0.3,0
			l-0.4,1.6c-1.2,0-2.3,0.4-3.4,1.1c-1,0.7-1.9,1.6-2.5,2.8l-1.9,9h-1.9L50.6-14.2z"/>
		<path class="st0" d="M60.2-14.2h1.8L61.2-11c0.8-1.1,1.7-2,2.7-2.6c1-0.6,2.1-0.9,3.2-0.9c1.1,0,1.9,0.3,2.5,1
			c0.5,0.7,0.8,1.6,0.8,2.8c0.8-1.2,1.8-2.2,2.8-2.8c1.1-0.6,2.2-1,3.3-1c1.2,0,2,0.3,2.5,0.9c0.5,0.6,0.7,1.5,0.7,2.6
			c0,0.8-0.1,1.7-0.3,2.7l-1.8,8.5h-1.9l1.7-8.1c0.1-0.4,0.2-0.8,0.2-1.2c0-0.4,0.1-0.7,0.1-1c0-1.8-0.7-2.7-2.2-2.7
			c-0.5,0-1,0.1-1.5,0.3c-0.5,0.2-1,0.5-1.5,0.9c-0.5,0.4-0.9,0.8-1.3,1.3c-0.4,0.5-0.7,1.1-1,1.7l-1.9,8.9h-1.9l1.7-8.1
			c0.1-0.5,0.2-0.9,0.2-1.3c0.1-0.4,0.1-0.7,0.1-1c0-1.7-0.7-2.6-2.2-2.6c-1,0-2,0.4-3,1.1c-1,0.8-1.8,1.8-2.4,3L59,0.3h-1.9
			L60.2-14.2z"/>
		<path class="st0" d="M87.4,0.5c-0.9,0-1.6-0.2-2.3-0.5c-0.7-0.3-1.2-0.8-1.7-1.3c-0.5-0.5-0.8-1.2-1.1-1.9C82.1-3.9,82-4.7,82-5.5
			c0-1.2,0.2-2.3,0.7-3.4c0.5-1.1,1.1-2,1.9-2.9c0.8-0.8,1.7-1.5,2.8-2c1-0.5,2.1-0.8,3.3-0.8c0.9,0,1.6,0.2,2.3,0.5
			c0.7,0.3,1.2,0.8,1.7,1.3c0.5,0.5,0.8,1.2,1.1,1.9c0.3,0.7,0.4,1.5,0.4,2.4c0,1.2-0.2,2.3-0.7,3.3c-0.5,1.1-1.1,2-1.9,2.9
			c-0.8,0.8-1.7,1.5-2.8,2C89.7,0.3,88.6,0.5,87.4,0.5z M87.8-1.1c0.8,0,1.6-0.2,2.3-0.6c0.8-0.4,1.4-0.9,2-1.5s1.1-1.4,1.4-2.2
			c0.4-0.8,0.6-1.7,0.6-2.7c0-0.6-0.1-1.3-0.3-1.8c-0.2-0.6-0.5-1.1-0.8-1.5c-0.3-0.4-0.8-0.7-1.2-1c-0.5-0.2-1-0.4-1.6-0.4
			c-0.8,0-1.5,0.2-2.3,0.6c-0.8,0.4-1.4,0.9-2,1.5c-0.6,0.7-1.1,1.4-1.5,2.3c-0.4,0.9-0.6,1.8-0.6,2.7c0,0.7,0.1,1.3,0.3,1.8
			c0.2,0.6,0.5,1.1,0.8,1.5c0.3,0.4,0.8,0.7,1.2,1C86.7-1.2,87.2-1.1,87.8-1.1z"/>
		<path class="st0" d="M100.6-14.2h1.8l-0.8,3.5c0.7-1.1,1.5-1.9,2.5-2.5c0.9-0.6,1.9-1,2.8-1c0.1,0,0.3,0,0.4,0c0.1,0,0.2,0,0.3,0
			l-0.4,1.6c-1.2,0-2.3,0.4-3.4,1.1c-1,0.7-1.9,1.6-2.5,2.8l-1.9,9h-1.9L100.6-14.2z"/>
		<path class="st0" d="M112.4,0.5c-0.9,0-1.7-0.2-2.4-0.5c-0.7-0.3-1.3-0.8-1.8-1.3c-0.5-0.6-0.8-1.2-1.1-2
			c-0.2-0.7-0.4-1.5-0.4-2.4c0-1.2,0.2-2.3,0.7-3.3c0.4-1.1,1.1-2,1.8-2.8c0.8-0.8,1.7-1.5,2.8-2c1.1-0.5,2.2-0.8,3.5-0.8
			c0.6,0,1.2,0.1,1.8,0.2c0.6,0.2,1.1,0.4,1.5,0.7c0.4,0.3,0.7,0.7,1,1.2c0.2,0.5,0.4,1.1,0.4,1.7c0,1.4-0.6,2.5-1.9,3.2
			c-1.3,0.7-3.2,1.1-5.9,1.1c-0.5,0-1.1,0-1.7,0c-0.6,0-1.3-0.1-2-0.1c0,0.1,0,0.3,0,0.4c0,0.1,0,0.3,0,0.4c0,0.6,0.1,1.2,0.2,1.8
			c0.2,0.6,0.4,1.1,0.8,1.5c0.3,0.4,0.8,0.8,1.3,1c0.5,0.2,1.1,0.4,1.8,0.4c0.4,0,0.9-0.1,1.4-0.2c0.5-0.1,0.9-0.3,1.3-0.5
			c0.4-0.2,0.8-0.5,1.2-0.8s0.6-0.7,0.9-1.1l1.6,0.5c-0.3,0.5-0.7,1-1.2,1.5c-0.5,0.5-1,0.8-1.6,1.2c-0.6,0.3-1.2,0.6-1.8,0.8
			C113.7,0.5,113.1,0.5,112.4,0.5z M115.3-13c-0.8,0-1.6,0.1-2.3,0.4c-0.7,0.3-1.3,0.7-1.8,1.2c-0.5,0.5-1,1-1.4,1.7
			c-0.4,0.6-0.7,1.3-0.8,2c0.7,0,1.3,0.1,1.9,0.1c0.6,0,1.1,0,1.6,0c1.1,0,2-0.1,2.8-0.2c0.8-0.1,1.4-0.4,1.8-0.6
			c0.5-0.3,0.8-0.6,1-0.9c0.2-0.4,0.3-0.8,0.3-1.2c0-0.8-0.3-1.4-0.9-1.8C116.9-12.8,116.2-13,115.3-13z"/>
		<path class="st0" d="M-114.1,13.4h1.4l-0.6,2.7c0.3-0.4,0.7-0.8,1.1-1.2s0.9-0.7,1.3-0.9c0.5-0.3,0.9-0.5,1.4-0.6
			c0.5-0.1,1-0.2,1.5-0.2c0.9,0,1.6,0.2,2,0.7c0.4,0.5,0.6,1.2,0.6,2.1c0,0.3,0,0.7-0.1,1.1c-0.1,0.4-0.1,0.8-0.2,1.2l-1.5,6.9h-1.5
			l1.4-6.6c0.2-0.7,0.2-1.4,0.2-1.9c0-1.4-0.6-2.1-1.8-2.1c-0.4,0-0.9,0.1-1.3,0.2c-0.5,0.2-0.9,0.4-1.3,0.7
			c-0.4,0.3-0.8,0.7-1.2,1.1c-0.4,0.4-0.7,0.9-0.9,1.4l-1.5,7.2h-1.5L-114.1,13.4z"/>
		<path class="st0" d="M-99.3,25.4c-0.7,0-1.3-0.1-1.8-0.4c-0.5-0.3-1-0.6-1.3-1.1c-0.4-0.5-0.6-1-0.8-1.6c-0.2-0.6-0.3-1.2-0.3-1.9
			c0-0.9,0.2-1.8,0.5-2.7c0.4-0.9,0.8-1.7,1.5-2.3c0.6-0.7,1.3-1.2,2.1-1.6c0.8-0.4,1.6-0.6,2.5-0.6c1,0,1.7,0.3,2.4,0.8
			c0.6,0.5,1.1,1.2,1.3,1.9l0.5-2.5h1.5l-2.1,9.8c0,0.1,0,0.2,0,0.3c0,0.2,0.1,0.4,0.4,0.4l-0.3,1.4c-0.1,0-0.2,0-0.3,0
			c-0.1,0-0.2,0-0.3,0c-0.3,0-0.6-0.1-0.8-0.3c-0.2-0.2-0.3-0.4-0.3-0.6c0-0.1,0-0.3,0.1-0.5c0-0.2,0.1-0.5,0.2-1
			c-0.6,0.8-1.3,1.4-2.2,1.8C-97.7,25.2-98.5,25.4-99.3,25.4z M-98.7,24.1c0.4,0,0.8-0.1,1.2-0.2c0.4-0.2,0.9-0.4,1.3-0.6
			c0.4-0.3,0.8-0.6,1.1-0.9c0.3-0.4,0.6-0.7,0.7-1.1l0.7-3.7c0-0.4-0.2-0.8-0.4-1.1c-0.2-0.4-0.4-0.7-0.7-0.9
			c-0.3-0.3-0.6-0.5-1-0.6c-0.4-0.2-0.7-0.2-1.1-0.2c-0.7,0-1.3,0.2-1.9,0.5c-0.6,0.3-1.1,0.8-1.6,1.3c-0.5,0.5-0.8,1.2-1.1,1.8
			c-0.3,0.7-0.4,1.4-0.4,2c0,0.5,0.1,1,0.2,1.5s0.4,0.9,0.7,1.2c0.3,0.3,0.6,0.6,1,0.8C-99.6,24-99.2,24.1-98.7,24.1z"/>
		<path class="st0" d="M-85.5,25.4c-0.7,0-1.3-0.1-1.9-0.4c-0.6-0.3-1-0.6-1.4-1.1c-0.4-0.5-0.7-1-0.9-1.6c-0.2-0.6-0.3-1.2-0.3-1.9
			c0-1,0.2-1.9,0.6-2.7s0.9-1.7,1.5-2.3c0.6-0.7,1.4-1.2,2.2-1.6c0.9-0.4,1.8-0.6,2.7-0.6c1.1,0,2,0.3,2.6,0.8
			c0.7,0.5,1.1,1.2,1.4,2.1l-1.6,0.5c-0.2-0.6-0.5-1.1-1-1.4c-0.5-0.3-1.1-0.5-1.7-0.5c-0.7,0-1.3,0.2-1.9,0.5
			c-0.6,0.3-1.2,0.7-1.6,1.2c-0.5,0.5-0.9,1.1-1.2,1.8c-0.3,0.7-0.4,1.4-0.4,2.2c0,0.5,0.1,1,0.2,1.5c0.2,0.5,0.4,0.9,0.6,1.2
			c0.3,0.3,0.6,0.6,1,0.8c0.4,0.2,0.8,0.3,1.3,0.3c0.4,0,0.7-0.1,1.1-0.2c0.4-0.1,0.7-0.3,1.1-0.4c0.3-0.2,0.6-0.4,0.9-0.6
			c0.3-0.2,0.5-0.5,0.6-0.8l1.4,0.5c-0.2,0.4-0.6,0.8-0.9,1.2c-0.4,0.4-0.8,0.7-1.3,0.9c-0.5,0.3-1,0.5-1.5,0.6
			C-84.4,25.3-84.9,25.4-85.5,25.4z"/>
		<path class="st0" d="M-75.9,13.4h1.5l-2.5,11.8h-1.5L-75.9,13.4z M-74.9,8.6h1.5l-0.5,2.3h-1.5L-74.9,8.6z"/>
		<path class="st0" d="M-68.8,25.4c-0.7,0-1.3-0.1-1.9-0.4c-0.6-0.3-1-0.6-1.4-1.1c-0.4-0.4-0.7-1-0.9-1.6c-0.2-0.6-0.3-1.2-0.3-1.9
			c0-1,0.2-1.9,0.6-2.7c0.4-0.9,0.9-1.7,1.6-2.3c0.6-0.7,1.4-1.2,2.2-1.6c0.8-0.4,1.7-0.6,2.7-0.6c0.7,0,1.3,0.1,1.9,0.4
			c0.5,0.3,1,0.6,1.4,1.1c0.4,0.4,0.7,1,0.9,1.6c0.2,0.6,0.3,1.2,0.3,1.9c0,0.9-0.2,1.8-0.6,2.7c-0.4,0.9-0.9,1.7-1.5,2.3
			s-1.4,1.2-2.2,1.6C-66.9,25.2-67.8,25.4-68.8,25.4z M-68.5,24.1c0.6,0,1.3-0.2,1.9-0.5c0.6-0.3,1.2-0.7,1.7-1.2
			c0.5-0.5,0.9-1.1,1.2-1.8c0.3-0.7,0.5-1.4,0.5-2.2c0-0.5-0.1-1-0.2-1.5c-0.2-0.5-0.4-0.9-0.6-1.2c-0.3-0.3-0.6-0.6-1-0.8
			c-0.4-0.2-0.8-0.3-1.3-0.3c-0.6,0-1.3,0.2-1.9,0.5c-0.6,0.3-1.2,0.7-1.7,1.3c-0.5,0.5-0.9,1.1-1.2,1.8c-0.3,0.7-0.5,1.4-0.5,2.2
			c0,0.5,0.1,1,0.2,1.5s0.4,0.9,0.6,1.2c0.3,0.3,0.6,0.6,1,0.8C-69.4,24-69,24.1-68.5,24.1z"/>
		<path class="st0" d="M-58.1,13.4h1.4l-0.6,2.7c0.3-0.4,0.7-0.8,1.1-1.2c0.4-0.4,0.9-0.7,1.3-0.9c0.5-0.3,0.9-0.5,1.4-0.6
			c0.5-0.1,1-0.2,1.5-0.2c0.9,0,1.6,0.2,2,0.7c0.4,0.5,0.6,1.2,0.6,2.1c0,0.3,0,0.7-0.1,1.1c-0.1,0.4-0.1,0.8-0.2,1.2l-1.5,6.9h-1.5
			l1.4-6.6c0.2-0.7,0.2-1.4,0.2-1.9c0-1.4-0.6-2.1-1.8-2.1c-0.4,0-0.9,0.1-1.3,0.2c-0.5,0.2-0.9,0.4-1.3,0.7
			c-0.4,0.3-0.8,0.7-1.2,1.1c-0.4,0.4-0.7,0.9-0.9,1.4l-1.5,7.2h-1.5L-58.1,13.4z"/>
		<path class="st0" d="M-43.3,25.4c-0.7,0-1.3-0.1-1.8-0.4c-0.5-0.3-1-0.6-1.3-1.1c-0.4-0.5-0.6-1-0.8-1.6c-0.2-0.6-0.3-1.2-0.3-1.9
			c0-0.9,0.2-1.8,0.5-2.7c0.4-0.9,0.8-1.7,1.5-2.3c0.6-0.7,1.3-1.2,2.1-1.6c0.8-0.4,1.6-0.6,2.5-0.6c1,0,1.7,0.3,2.4,0.8
			c0.6,0.5,1.1,1.2,1.3,1.9l0.5-2.5h1.5l-2.1,9.8c0,0.1,0,0.2,0,0.3c0,0.2,0.1,0.4,0.4,0.4l-0.3,1.4c-0.1,0-0.2,0-0.3,0
			c-0.1,0-0.2,0-0.3,0c-0.3,0-0.6-0.1-0.8-0.3c-0.2-0.2-0.3-0.4-0.3-0.6c0-0.1,0-0.3,0.1-0.5c0-0.2,0.1-0.5,0.2-1
			c-0.6,0.8-1.3,1.4-2.2,1.8C-41.7,25.2-42.5,25.4-43.3,25.4z M-42.7,24.1c0.4,0,0.8-0.1,1.2-0.2c0.4-0.2,0.9-0.4,1.3-0.6
			c0.4-0.3,0.8-0.6,1.1-0.9c0.3-0.4,0.6-0.7,0.7-1.1l0.7-3.7c0-0.4-0.2-0.8-0.4-1.1c-0.2-0.4-0.4-0.7-0.7-0.9
			c-0.3-0.3-0.6-0.5-1-0.6c-0.4-0.2-0.7-0.2-1.1-0.2c-0.7,0-1.3,0.2-1.9,0.5c-0.6,0.3-1.1,0.8-1.6,1.3c-0.5,0.5-0.8,1.2-1.1,1.8
			c-0.3,0.7-0.4,1.4-0.4,2c0,0.5,0.1,1,0.2,1.5c0.2,0.5,0.4,0.9,0.7,1.2c0.3,0.3,0.6,0.6,1,0.8C-43.6,24-43.2,24.1-42.7,24.1z"/>
		<path class="st0" d="M-31.8,13.4h1.5l-2.5,11.8h-1.5L-31.8,13.4z M-30.8,8.6h1.5l-0.5,2.3h-1.5L-30.8,8.6z"/>
		<path class="st0" d="M-25.8,25.4c-0.9,0-1.7-0.2-2.5-0.5c-0.8-0.3-1.4-0.7-1.9-1.3l0.9-1c1,1.1,2.2,1.6,3.7,1.6
			c1,0,1.8-0.2,2.5-0.7c0.6-0.5,1-1.1,1-1.8c0-0.3-0.1-0.5-0.2-0.7c-0.1-0.2-0.3-0.3-0.5-0.5c-0.2-0.1-0.5-0.3-0.9-0.4
			c-0.4-0.1-0.8-0.2-1.2-0.4c-0.5-0.2-1-0.3-1.4-0.4c-0.4-0.1-0.7-0.3-1-0.5c-0.3-0.2-0.5-0.4-0.6-0.6c-0.1-0.2-0.2-0.5-0.2-0.9
			c0-0.7,0.1-1.2,0.4-1.7c0.3-0.5,0.6-0.9,1.1-1.3c0.5-0.4,1-0.6,1.6-0.8c0.6-0.2,1.3-0.3,1.9-0.3c0.9,0,1.6,0.1,2.2,0.4
			c0.6,0.3,1.1,0.7,1.5,1.2l-1,0.9c-0.3-0.5-0.8-0.8-1.3-1c-0.6-0.2-1.1-0.3-1.8-0.3c-0.4,0-0.8,0.1-1.2,0.2c-0.4,0.1-0.7,0.3-1,0.5
			c-0.3,0.2-0.5,0.5-0.7,0.8c-0.2,0.3-0.3,0.7-0.3,1.1c0,0.5,0.2,0.8,0.6,1c0.4,0.2,1,0.4,1.8,0.6c1.2,0.3,2.2,0.6,2.8,1
			c0.6,0.4,1,1,1,1.8c0,0.6-0.1,1.1-0.4,1.6c-0.3,0.5-0.6,0.9-1.1,1.3c-0.5,0.4-1,0.6-1.7,0.9C-24.3,25.3-25,25.4-25.8,25.4z"/>
		<path class="st0" d="M-8.3,25.4c-0.7,0-1.4-0.1-1.9-0.4c-0.6-0.3-1-0.6-1.4-1.1c-0.4-0.5-0.7-1-0.9-1.6c-0.2-0.6-0.3-1.3-0.3-2
			c0-0.9,0.2-1.8,0.5-2.7c0.4-0.9,0.9-1.6,1.5-2.3c0.6-0.7,1.4-1.2,2.3-1.6c0.9-0.4,1.8-0.6,2.8-0.6c0.5,0,1,0.1,1.5,0.2
			c0.5,0.1,0.9,0.3,1.2,0.6c0.3,0.3,0.6,0.6,0.8,1c0.2,0.4,0.3,0.9,0.3,1.4c0,1.2-0.5,2-1.5,2.6c-1,0.6-2.6,0.9-4.8,0.9
			c-0.4,0-0.9,0-1.4,0c-0.5,0-1,0-1.6-0.1c0,0.1,0,0.2,0,0.3c0,0.1,0,0.2,0,0.3c0,0.5,0.1,1,0.2,1.5c0.1,0.5,0.3,0.9,0.6,1.2
			s0.6,0.6,1,0.8c0.4,0.2,0.9,0.3,1.4,0.3c0.4,0,0.7-0.1,1.1-0.2c0.4-0.1,0.7-0.3,1.1-0.4c0.3-0.2,0.7-0.4,0.9-0.7s0.5-0.6,0.7-0.9
			l1.3,0.4c-0.3,0.4-0.6,0.8-1,1.2c-0.4,0.4-0.8,0.7-1.3,1s-1,0.5-1.5,0.6C-7.2,25.3-7.8,25.4-8.3,25.4z M-5.9,14.4
			c-0.7,0-1.3,0.1-1.9,0.4c-0.6,0.2-1.1,0.6-1.5,1c-0.4,0.4-0.8,0.8-1.1,1.4c-0.3,0.5-0.5,1-0.7,1.6c0.5,0,1,0.1,1.5,0.1
			c0.5,0,0.9,0,1.3,0c0.9,0,1.6-0.1,2.3-0.2s1.1-0.3,1.5-0.5c0.4-0.2,0.6-0.5,0.8-0.8c0.2-0.3,0.2-0.6,0.2-1c0-0.7-0.2-1.2-0.7-1.5
			C-4.6,14.5-5.2,14.4-5.9,14.4z"/>
		<path class="st0" d="M7,13.4h1.5L6.1,25.2H4.5L7,13.4z M8.1,8.6h1.5l-0.5,2.3H7.6L8.1,8.6z"/>
		<path class="st0" d="M11.9,13.4h1.4L12.7,16c0.6-0.9,1.4-1.6,2.2-2.1c0.9-0.5,1.7-0.8,2.6-0.8c0.9,0,1.6,0.3,2,0.8
			c0.4,0.5,0.7,1.3,0.7,2.3c0.7-1,1.4-1.8,2.3-2.3c0.9-0.5,1.8-0.8,2.7-0.8c1,0,1.6,0.3,2,0.8c0.4,0.5,0.6,1.2,0.6,2.1
			c0,0.7-0.1,1.4-0.3,2.2l-1.5,6.9h-1.5l1.4-6.6c0.1-0.3,0.1-0.7,0.2-1c0-0.3,0.1-0.6,0.1-0.9c0-1.5-0.6-2.2-1.8-2.2
			c-0.4,0-0.8,0.1-1.3,0.2c-0.4,0.2-0.8,0.4-1.2,0.7c-0.4,0.3-0.7,0.7-1.1,1.1C20.6,17,20.3,17.5,20,18l-1.5,7.2H17l1.4-6.6
			c0.1-0.4,0.1-0.7,0.2-1s0.1-0.6,0.1-0.9c0-1.4-0.6-2.1-1.8-2.1c-0.8,0-1.7,0.3-2.4,0.9c-0.8,0.6-1.4,1.4-1.9,2.4l-1.5,7.2H9.4
			L11.9,13.4z"/>
		<path class="st0" d="M31.8,13.4h1.4l-0.5,2.3c0.6-0.7,1.3-1.3,2.2-1.8c0.8-0.5,1.7-0.7,2.5-0.7c0.6,0,1.2,0.1,1.8,0.4
			s1,0.6,1.3,1.1c0.4,0.5,0.6,1,0.8,1.6c0.2,0.6,0.3,1.2,0.3,1.9c0,0.9-0.2,1.8-0.5,2.7c-0.3,0.9-0.8,1.7-1.4,2.3
			c-0.6,0.7-1.3,1.2-2.1,1.6c-0.8,0.4-1.6,0.6-2.5,0.6c-1,0-1.7-0.3-2.3-0.8c-0.6-0.5-1.1-1.1-1.3-1.9L29.8,30h-1.5L31.8,13.4z
			 M34.9,24.1c0.7,0,1.3-0.2,2-0.5c0.6-0.3,1.2-0.8,1.6-1.3c0.5-0.5,0.8-1.1,1.1-1.8c0.3-0.7,0.4-1.4,0.4-2c0-0.5-0.1-1-0.2-1.5
			c-0.2-0.5-0.4-0.9-0.7-1.2c-0.3-0.3-0.6-0.6-1-0.8c-0.4-0.2-0.8-0.3-1.3-0.3c-0.4,0-0.8,0.1-1.2,0.2c-0.4,0.2-0.9,0.4-1.3,0.6
			c-0.4,0.3-0.8,0.6-1.1,0.9c-0.3,0.4-0.6,0.7-0.7,1.1l-0.8,3.6c0.1,0.4,0.2,0.8,0.4,1.2c0.2,0.4,0.4,0.7,0.7,0.9
			c0.3,0.3,0.6,0.5,1,0.6C34.1,24,34.5,24.1,34.9,24.1z"/>
		<path class="st0" d="M47.5,25.4c-0.7,0-1.3-0.1-1.9-0.4c-0.6-0.3-1-0.6-1.4-1.1c-0.4-0.4-0.7-1-0.9-1.6c-0.2-0.6-0.3-1.2-0.3-1.9
			c0-1,0.2-1.9,0.6-2.7c0.4-0.9,0.9-1.7,1.6-2.3c0.6-0.7,1.4-1.2,2.2-1.6c0.8-0.4,1.7-0.6,2.7-0.6c0.7,0,1.3,0.1,1.9,0.4
			c0.5,0.3,1,0.6,1.4,1.1c0.4,0.4,0.7,1,0.9,1.6c0.2,0.6,0.3,1.2,0.3,1.9c0,0.9-0.2,1.8-0.6,2.7c-0.4,0.9-0.9,1.7-1.5,2.3
			c-0.6,0.7-1.4,1.2-2.2,1.6C49.4,25.2,48.5,25.4,47.5,25.4z M47.8,24.1c0.6,0,1.3-0.2,1.9-0.5c0.6-0.3,1.2-0.7,1.7-1.2
			c0.5-0.5,0.9-1.1,1.2-1.8c0.3-0.7,0.5-1.4,0.5-2.2c0-0.5-0.1-1-0.2-1.5c-0.2-0.5-0.4-0.9-0.6-1.2c-0.3-0.3-0.6-0.6-1-0.8
			c-0.4-0.2-0.8-0.3-1.3-0.3c-0.6,0-1.3,0.2-1.9,0.5c-0.6,0.3-1.2,0.7-1.7,1.3c-0.5,0.5-0.9,1.1-1.2,1.8c-0.3,0.7-0.5,1.4-0.5,2.2
			c0,0.5,0.1,1,0.2,1.5c0.2,0.5,0.4,0.9,0.6,1.2c0.3,0.3,0.6,0.6,1,0.8C46.9,24,47.3,24.1,47.8,24.1z"/>
		<path class="st0" d="M58.2,13.4h1.5l-0.6,2.8c0.6-0.9,1.3-1.5,2-2.1c0.7-0.5,1.5-0.8,2.3-0.8c0.1,0,0.2,0,0.3,0s0.2,0,0.2,0
			l-0.3,1.3c-1,0-1.9,0.3-2.7,0.9c-0.8,0.5-1.5,1.3-2,2.2l-1.5,7.4h-1.5L58.2,13.4z"/>
		<path class="st0" d="M66.4,25.3c-0.6,0-1-0.1-1.4-0.4c-0.4-0.3-0.6-0.7-0.6-1.3c0-0.2,0-0.4,0.1-0.6l1.8-8.5h-1.6l0.3-1.2h1.5
			l0.9-4h1.5l-0.9,4h2.6l-0.3,1.2h-2.6l-1.6,7.7c0,0.2-0.1,0.3-0.1,0.4c0,0.1,0,0.2,0,0.2c0,0.3,0.1,0.6,0.3,0.7
			c0.2,0.2,0.5,0.2,0.8,0.2c0.4,0,0.8-0.1,1.1-0.2c0.3-0.1,0.6-0.2,0.7-0.3l0.1,1.2c-0.2,0.1-0.5,0.3-1.1,0.5
			C67.5,25.2,67,25.3,66.4,25.3z"/>
		<path class="st0" d="M75.1,25.4c-0.7,0-1.3-0.1-1.8-0.4c-0.5-0.3-1-0.6-1.3-1.1c-0.4-0.5-0.6-1-0.8-1.6c-0.2-0.6-0.3-1.2-0.3-1.9
			c0-0.9,0.2-1.8,0.5-2.7c0.4-0.9,0.8-1.7,1.5-2.3c0.6-0.7,1.3-1.2,2.1-1.6c0.8-0.4,1.6-0.6,2.5-0.6c1,0,1.7,0.3,2.4,0.8
			c0.6,0.5,1.1,1.2,1.3,1.9l0.5-2.5h1.5l-2.1,9.8c0,0.1,0,0.2,0,0.3c0,0.2,0.1,0.4,0.4,0.4l-0.3,1.4c-0.1,0-0.2,0-0.3,0
			c-0.1,0-0.2,0-0.3,0c-0.3,0-0.6-0.1-0.8-0.3c-0.2-0.2-0.3-0.4-0.3-0.6c0-0.1,0-0.3,0.1-0.5s0.1-0.5,0.2-1
			c-0.6,0.8-1.3,1.4-2.2,1.8C76.7,25.2,75.9,25.4,75.1,25.4z M75.7,24.1c0.4,0,0.8-0.1,1.2-0.2c0.4-0.2,0.9-0.4,1.3-0.6
			c0.4-0.3,0.8-0.6,1.1-0.9c0.3-0.4,0.6-0.7,0.7-1.1l0.7-3.7c0-0.4-0.2-0.8-0.4-1.1c-0.2-0.4-0.4-0.7-0.7-0.9
			c-0.3-0.3-0.6-0.5-1-0.6c-0.4-0.2-0.7-0.2-1.1-0.2c-0.7,0-1.3,0.2-1.9,0.5c-0.6,0.3-1.1,0.8-1.6,1.3c-0.5,0.5-0.8,1.2-1.1,1.8
			c-0.3,0.7-0.4,1.4-0.4,2c0,0.5,0.1,1,0.2,1.5s0.4,0.9,0.7,1.2c0.3,0.3,0.6,0.6,1,0.8C74.8,24,75.2,24.1,75.7,24.1z"/>
		<path class="st0" d="M88.7,25.4c-0.7,0-1.3-0.1-1.8-0.4c-0.5-0.3-1-0.6-1.3-1.1c-0.4-0.5-0.6-1-0.8-1.6c-0.2-0.6-0.3-1.2-0.3-1.9
			c0-0.9,0.2-1.8,0.5-2.7c0.4-0.9,0.8-1.7,1.5-2.3c0.6-0.7,1.3-1.2,2.1-1.6c0.8-0.4,1.6-0.6,2.5-0.6c0.9,0,1.7,0.3,2.3,0.8
			c0.6,0.5,1.1,1.2,1.3,1.9l1.5-7.2h1.5l-3.1,14.5c0,0.2,0,0.2,0,0.3c0,0.3,0.1,0.4,0.4,0.4l-0.3,1.4c-0.1,0-0.2,0-0.3,0
			c-0.1,0-0.2,0-0.2,0c-0.4,0-0.6-0.1-0.8-0.3c-0.2-0.2-0.3-0.4-0.3-0.6c0-0.1,0-0.3,0-0.4c0-0.2,0.1-0.5,0.2-1
			c-0.6,0.8-1.3,1.4-2.2,1.8C90.3,25.2,89.5,25.4,88.7,25.4z M89.3,24.1c0.4,0,0.8-0.1,1.2-0.2c0.4-0.2,0.9-0.4,1.3-0.6
			c0.4-0.3,0.8-0.6,1.1-0.9c0.3-0.4,0.6-0.7,0.7-1.1l0.7-3.7c0-0.4-0.2-0.8-0.4-1.1c-0.2-0.4-0.4-0.7-0.7-0.9
			c-0.3-0.3-0.6-0.5-1-0.6c-0.4-0.2-0.7-0.2-1.1-0.2c-0.7,0-1.3,0.2-2,0.5c-0.6,0.3-1.2,0.8-1.6,1.3c-0.5,0.5-0.8,1.1-1.1,1.8
			c-0.3,0.7-0.4,1.4-0.4,2c0,0.5,0.1,1,0.2,1.5c0.2,0.5,0.4,0.9,0.7,1.2c0.3,0.3,0.6,0.6,1,0.8C88.3,24,88.8,24.1,89.3,24.1z"/>
		<path class="st0" d="M102.2,25.4c-0.7,0-1.3-0.1-1.8-0.4c-0.5-0.3-1-0.6-1.3-1.1c-0.4-0.5-0.6-1-0.8-1.6c-0.2-0.6-0.3-1.2-0.3-1.9
			c0-0.9,0.2-1.8,0.5-2.7c0.4-0.9,0.8-1.7,1.5-2.3c0.6-0.7,1.3-1.2,2.1-1.6c0.8-0.4,1.6-0.6,2.5-0.6c1,0,1.7,0.3,2.4,0.8
			c0.6,0.5,1.1,1.2,1.3,1.9l0.5-2.5h1.5l-2.1,9.8c0,0.1,0,0.2,0,0.3c0,0.2,0.1,0.4,0.4,0.4l-0.3,1.4c-0.1,0-0.2,0-0.3,0
			c-0.1,0-0.2,0-0.3,0c-0.3,0-0.6-0.1-0.8-0.3c-0.2-0.2-0.3-0.4-0.3-0.6c0-0.1,0-0.3,0.1-0.5c0-0.2,0.1-0.5,0.2-1
			c-0.6,0.8-1.3,1.4-2.2,1.8C103.9,25.2,103,25.4,102.2,25.4z M102.8,24.1c0.4,0,0.8-0.1,1.2-0.2c0.4-0.2,0.9-0.4,1.3-0.6
			c0.4-0.3,0.8-0.6,1.1-0.9c0.3-0.4,0.6-0.7,0.7-1.1l0.7-3.7c0-0.4-0.2-0.8-0.4-1.1c-0.2-0.4-0.4-0.7-0.7-0.9
			c-0.3-0.3-0.6-0.5-1-0.6c-0.4-0.2-0.7-0.2-1.1-0.2c-0.7,0-1.3,0.2-1.9,0.5c-0.6,0.3-1.1,0.8-1.6,1.3c-0.5,0.5-0.8,1.2-1.1,1.8
			c-0.3,0.7-0.4,1.4-0.4,2c0,0.5,0.1,1,0.2,1.5c0.2,0.5,0.4,0.9,0.7,1.2c0.3,0.3,0.6,0.6,1,0.8C101.9,24,102.3,24.1,102.8,24.1z"/>
		<path class="st0" d="M114.9,25.4c-0.9,0-1.7-0.2-2.5-0.5c-0.8-0.3-1.4-0.7-1.9-1.3l0.9-1c1,1.1,2.2,1.6,3.7,1.6
			c1,0,1.8-0.2,2.5-0.7c0.6-0.5,1-1.1,1-1.8c0-0.3-0.1-0.5-0.2-0.7c-0.1-0.2-0.3-0.3-0.5-0.5c-0.2-0.1-0.5-0.3-0.9-0.4
			c-0.4-0.1-0.8-0.2-1.2-0.4c-0.5-0.2-1-0.3-1.4-0.4c-0.4-0.1-0.7-0.3-1-0.5s-0.5-0.4-0.6-0.6c-0.1-0.2-0.2-0.5-0.2-0.9
			c0-0.7,0.1-1.2,0.4-1.7c0.3-0.5,0.7-0.9,1.1-1.3c0.5-0.4,1-0.6,1.6-0.8c0.6-0.2,1.3-0.3,1.9-0.3c0.9,0,1.6,0.1,2.2,0.4
			c0.6,0.3,1.1,0.7,1.5,1.2l-1,0.9c-0.3-0.5-0.8-0.8-1.3-1c-0.6-0.2-1.1-0.3-1.8-0.3c-0.4,0-0.8,0.1-1.2,0.2c-0.4,0.1-0.7,0.3-1,0.5
			c-0.3,0.2-0.5,0.5-0.7,0.8c-0.2,0.3-0.3,0.7-0.3,1.1c0,0.5,0.2,0.8,0.6,1c0.4,0.2,1,0.4,1.8,0.6c1.2,0.3,2.2,0.6,2.8,1
			c0.6,0.4,1,1,1,1.8c0,0.6-0.1,1.1-0.4,1.6c-0.3,0.5-0.6,0.9-1.1,1.3c-0.5,0.4-1,0.6-1.7,0.9C116.4,25.3,115.7,25.4,114.9,25.4z"/>
	</g>
	<g transform="translate(349.636 87.501)">
		<path class="st1" d="M-529-126.1c-6.6,5.6-15,8.7-23.6,8.7c-6.1,0-12.1-1.1-17.7-3.3c-5.5-2.1-10.6-5.4-14.8-9.6
			c-4.4-4.5-7.8-9.7-10.2-15.5c-2.6-6.1-3.7-13.1-3.7-20.9c0-6.5,1.2-12.9,3.7-18.8c2.4-5.7,6-10.8,10.3-15.1
			c4.5-4.3,9.8-7.7,15.5-10.2c6.2-2.5,12.7-3.7,19.4-3.7c4.2,0,8.3,0.5,12.4,1.5c3.8,0.9,7.5,2.3,10.9,4.2c3.3,1.8,6.3,4,9,6.6
			c2.7,2.5,4.9,5.4,6.6,8.7l-19.6,15c-1.9-3.8-4.9-6.9-8.5-9c-3.6-2.2-7.8-3.5-12-3.5c-3-0.1-6,0.6-8.7,1.8c-2.6,1.2-4.8,3-6.6,5.2
			c-1.9,2.4-3.4,5.1-4.4,7.9c-1.1,3.3-1.7,6.7-1.7,10.1c0,3.5,0.5,6.9,1.7,10.2c1,2.9,2.5,5.6,4.4,7.9c1.9,2.2,4.3,4,7,5.2
			c2.8,1.3,5.9,1.9,9,1.8c7.6,0,14.4-3.1,20.1-9.4h-16.6v-18.8h39.3v50.9h-21.6v-7.9L-529-126.1z"/>
		<path class="st1" d="M-494.3-118.1v-95.6h43.9c4.5-0.1,8.9,0.9,12.9,3c3.9,1.8,7.3,4.4,10.2,7.6c2.8,3.2,5.1,6.8,6.6,10.7
			c1.6,3.8,2.4,7.9,2.4,12c0,5.4-1.3,10.7-3.7,15.5c-2.3,4.7-5.8,8.8-10.2,11.8l20.1,35.1h-29.7l-16.8-29.4h-9.8v29.4L-494.3-118.1z
			 M-468.1-170.4h16.6c1.7,0,3.1-0.9,4.4-2.8c1.5-1.8,2-4.2,2-7.6s-0.7-5.9-2.4-7.6s-3.3-2.6-4.8-2.6h-15.9L-468.1-170.4z"/>
		<path class="st1" d="M-378.8-213.8h24l33,95.6h-26.6l-5.7-18.6h-25.5l-5.7,18.6H-412L-378.8-213.8z M-358.3-154.3l-8.5-29.7
			l-8.9,29.7H-358.3z"/>
		<path class="st1" d="M-287.4-165.2v47.1h-26.2v-95.6h20.5l38.4,48.5v-48.5h26.2v95.6h-20.9L-287.4-165.2z"/>
	</g>
	<g transform="translate(571.158 41.905)">
		<path class="st0" d="M-593.4-184.8c-1.1,0-2.2-0.2-3.1-0.7c-0.9-0.5-1.7-1.1-2.4-1.8c-0.6-0.8-1.1-1.8-1.5-2.8
			c-0.4-1.1-0.6-2.2-0.6-3.3c0-1.6,0.3-3.3,0.9-4.8c0.6-1.5,1.5-2.9,2.6-4.1c1.1-1.2,2.3-2.2,3.7-3c1.4-0.7,2.9-1.1,4.4-1.1
			c1.5-0.1,2.9,0.4,4.1,1.3c1.1,0.9,1.9,2,2.4,3.3l2.8-12.7h2.8l-5.4,25.5v0.6c0,0.4,0.2,0.7,0.6,0.7c0,0,0.1,0,0.1,0l-0.6,2.4h-0.9
			c-0.5,0-1-0.1-1.5-0.4c-0.3-0.3-0.5-0.7-0.6-1.1v-0.7c0.1-0.6,0.2-1.1,0.4-1.7c-1.1,1.3-2.4,2.4-3.9,3.3
			C-590.3-185.1-591.9-184.7-593.4-184.8z M-592.3-187.2c0.7,0,1.4-0.2,2-0.4c0.8-0.2,1.6-0.6,2.2-1.1c0.7-0.5,1.3-1,1.8-1.7
			c0.5-0.6,0.9-1.3,1.3-2l1.3-6.5c-0.1-0.7-0.3-1.4-0.6-2c-0.4-0.6-0.8-1.2-1.3-1.7c-0.5-0.5-1-0.9-1.7-1.1c-0.7-0.2-1.3-0.4-2-0.4
			c-1.2,0-2.4,0.4-3.5,0.9c-1.1,0.5-2.1,1.4-2.8,2.4c-0.8,1-1.4,2-1.8,3.1c-0.5,1.1-0.8,2.3-0.7,3.5c0,0.9,0.1,1.7,0.4,2.6
			c0.3,0.8,0.7,1.5,1.1,2.2c0.5,0.6,1.2,1.1,1.8,1.5C-594-187.4-593.2-187.2-592.3-187.2L-592.3-187.2z"/>
		<path class="st0" d="M-569.1-184.8c-1.2,0.1-2.3-0.2-3.3-0.7c-0.9-0.5-1.8-1.1-2.6-1.8c-0.7-0.8-1.2-1.7-1.5-2.8
			c-0.4-1.1-0.6-2.3-0.6-3.5c0-1.6,0.3-3.3,0.9-4.8c0.6-1.5,1.5-2.9,2.6-4.1c1.1-1.2,2.4-2.1,3.9-2.8c2.3-1.2,5-1.4,7.6-0.7
			c0.8,0.2,1.5,0.6,2,1.1c0.6,0.5,1.1,1.2,1.5,1.8c1.3,2.6,0.3,5.7-2.2,7c-1.8,1.1-4.6,1.5-8.3,1.5h-2.4c-0.9,0-1.9,0-2.8-0.2v1.1
			c0,0.9,0.1,1.7,0.4,2.6c0.2,0.8,0.6,1.6,1.1,2.2c0.5,0.6,1.2,1.1,1.8,1.5c0.8,0.4,1.7,0.6,2.6,0.6c0.7,0,1.4-0.2,2-0.4
			c0.7-0.1,1.3-0.4,1.8-0.7c0.6-0.4,1.2-0.8,1.7-1.3c0.5-0.5,1-1,1.3-1.7l2.2,0.7c-0.6,0.8-1.2,1.5-1.8,2.2
			c-0.6,0.7-1.4,1.2-2.2,1.7c-0.8,0.4-1.7,0.8-2.6,1.1C-566.9-184.8-568-184.7-569.1-184.8z M-564.8-204.2c-1.1,0-2.3,0.2-3.3,0.6
			c-1,0.4-1.8,0.9-2.6,1.7c-0.8,0.7-1.5,1.5-2,2.4c-0.5,0.9-0.9,1.8-1.1,2.8c0.9,0,1.8,0.2,2.6,0.2h2.4c1.4,0,2.7-0.1,4.1-0.4
			c0.9-0.1,1.8-0.4,2.6-0.9c0.6-0.3,1.1-0.7,1.5-1.3c0.3-0.5,0.4-1.1,0.4-1.7c0.1-1-0.4-2-1.3-2.6
			C-562.6-203.9-563.7-204.2-564.8-204.2L-564.8-204.2z"/>
		<path class="st0" d="M-552.1-206h2.4l-0.9,4.1c1.1-1.3,2.4-2.4,3.9-3.1c1.4-0.8,2.9-1.2,4.4-1.3c1.1,0,2.2,0.2,3.1,0.7
			c0.9,0.5,1.7,1.1,2.4,1.8c0.6,0.8,1.1,1.8,1.5,2.8c0.4,1.1,0.6,2.2,0.6,3.3c0,1.6-0.4,3.3-0.9,4.8c-0.6,1.5-1.5,2.9-2.6,4.1
			c-1.1,1.2-2.3,2.2-3.7,3c-1.4,0.7-2.9,1.1-4.4,1.1c-1.5,0.1-2.9-0.3-4.1-1.3c-1.1-0.9-1.9-2-2.4-3.3l-2.8,12.7h-2.8L-552.1-206z
			 M-546.5-187.2c1.2,0,2.4-0.4,3.5-0.9c1.1-0.5,2.1-1.4,2.8-2.4c0.8-0.9,1.4-2,1.8-3.1c0.5-1.1,0.8-2.3,0.7-3.5
			c0-0.9-0.1-1.7-0.4-2.6c-0.3-0.8-0.7-1.5-1.1-2.2c-0.5-0.6-1.2-1.1-1.8-1.5c-0.7-0.4-1.6-0.6-2.4-0.6c-0.7,0-1.4,0.2-2,0.4
			l-2.2,1.1c-0.7,0.5-1.3,1-1.8,1.7c-0.5,0.6-1,1.3-1.3,2l-1.3,6.5c0.1,0.7,0.4,1.4,0.7,2c0.4,0.6,0.8,1.2,1.3,1.7
			c0.5,0.5,1,0.9,1.7,1.1C-547.8-187.3-547.2-187.2-546.5-187.2z"/>
		<path class="st0" d="M-524.4-184.8c-1.2,0.1-2.3-0.2-3.3-0.7c-0.9-0.5-1.7-1.1-2.4-1.8c-0.6-0.8-1.1-1.8-1.5-2.8
			c-0.4-1.1-0.6-2.2-0.6-3.3c0-1.7,0.4-3.3,1.1-4.8c0.7-1.5,1.6-2.9,2.8-4.1c1.1-1.2,2.4-2.1,3.9-2.8c1.4-0.7,3-1.1,4.6-1.1
			c1.2-0.1,2.3,0.2,3.3,0.7c0.9,0.5,1.7,1.1,2.4,1.8c0.7,0.8,1.2,1.7,1.5,2.8c0.4,1.1,0.6,2.2,0.6,3.3c0,1.7-0.4,3.3-1.1,4.8
			c-0.7,1.5-1.6,2.9-2.8,4.1c-1.1,1.2-2.4,2.1-3.9,2.8C-521.2-185.1-522.8-184.8-524.4-184.8z M-523.8-187.2c1.2,0,2.3-0.2,3.3-0.7
			c1.1-0.6,2.1-1.3,3-2.2c0.8-0.9,1.5-2,2-3.1c0.5-1.2,0.8-2.5,0.7-3.9c0-0.9-0.1-1.7-0.4-2.6c-0.2-0.8-0.6-1.6-1.1-2.2
			c-0.5-0.6-1.2-1.1-1.8-1.5c-0.7-0.4-1.4-0.5-2.2-0.6c-1.2,0-2.3,0.2-3.3,0.7c-1.1,0.6-2.1,1.3-3,2.2c-0.8,0.9-1.5,2-2,3.1
			c-0.5,1.2-0.8,2.5-0.7,3.9c0,0.9,0.1,1.7,0.4,2.6c0.2,0.8,0.6,1.5,1.1,2c0.5,0.6,1.2,1.1,1.8,1.5
			C-525.4-187.5-524.6-187.3-523.8-187.2z M-519.2-209.9l-1.7-0.7l3-3.7h2.8L-519.2-209.9z"/>
		<path class="st0" d="M-503.3-184.8c-1.5,0-3-0.2-4.4-0.7c-1.3-0.5-2.4-1.3-3.3-2.4l1.7-1.8c1.6,1.8,4,2.9,6.5,3
			c1.5,0.1,3-0.3,4.2-1.3c1.1-0.7,1.7-2,1.7-3.3c0-0.4-0.1-0.8-0.4-1.1l-0.9-0.9c-0.5-0.4-1.1-0.6-1.7-0.7c-0.7-0.2-1.5-0.4-2.2-0.6
			c-0.8-0.2-1.6-0.4-2.4-0.7c-0.7-0.2-1.3-0.5-1.8-0.9c-0.4-0.3-0.8-0.7-1.1-1.1c-0.3-0.5-0.4-1.1-0.4-1.7c0-1.1,0.2-2.2,0.7-3.1
			c0.5-0.9,1.2-1.7,2-2.2c0.9-0.6,1.8-1.1,2.8-1.5c1.1-0.4,2.2-0.6,3.3-0.6c1.3-0.1,2.7,0.2,3.9,0.7c1,0.5,1.9,1.2,2.6,2l-1.7,1.7
			c-0.6-0.8-1.3-1.4-2.2-1.8c-1-0.4-2.1-0.6-3.1-0.6c-0.8,0-1.5,0.2-2.2,0.4c-0.7,0.2-1.3,0.5-1.8,0.9c-0.5,0.4-1,0.9-1.3,1.5
			c-0.3,0.6-0.4,1.3-0.4,2c-0.1,0.8,0.4,1.5,1.1,1.8c1,0.5,2.1,0.9,3.1,1.1c1.7,0.3,3.4,1,5,1.8c1.1,0.7,1.7,1.9,1.7,3.1
			c0,1-0.2,2.1-0.7,3c-0.5,0.9-1.1,1.6-1.8,2.2c-0.9,0.6-1.9,1.1-3,1.5C-501.1-184.8-502.2-184.7-503.3-184.8z"/>
		<path class="st0" d="M-486.9-206h2.8l-4.4,20.9h-2.8L-486.9-206z M-485.1-214.3h2.8l-0.9,4.1h-2.8L-485.1-214.3z"/>
		<path class="st0" d="M-477.7-185c-0.9,0-1.8-0.2-2.6-0.7c-0.7-0.5-1-1.4-0.9-2.2c0-0.3,0-0.6,0.2-0.9l3.1-15h-2.8l0.6-2.2h2.8
			l1.5-7h2.8l-1.5,7h4.6l-0.6,2.2h-4.4l-3,13.5c0,0.4-0.2,0.6-0.2,0.7v0.4c-0.1,0.5,0.2,1,0.6,1.3c0.4,0.2,0.8,0.4,1.3,0.4
			c0.7,0,1.4-0.2,2-0.4c0.4-0.1,0.8-0.3,1.1-0.6l0.2,2.2c-0.6,0.3-1.2,0.6-1.8,0.7C-475.7-185.2-476.7-185-477.7-185z"/>
		<path class="st0" d="M-462-184.8c-1.2,0.1-2.3-0.2-3.3-0.7c-0.9-0.5-1.7-1.1-2.4-1.8c-0.6-0.8-1.1-1.8-1.5-2.8
			c-0.4-1.1-0.6-2.2-0.6-3.3c0-1.7,0.4-3.3,1.1-4.8c0.7-1.5,1.6-2.9,2.8-4.1c1.1-1.2,2.4-2.1,3.9-2.8c1.4-0.7,3-1.1,4.6-1.1
			c1.2-0.1,2.3,0.2,3.3,0.7c0.9,0.5,1.7,1.1,2.4,1.8c0.7,0.8,1.2,1.7,1.5,2.8c0.4,1.1,0.6,2.2,0.6,3.3c0,1.7-0.4,3.3-1.1,4.8
			c-0.7,1.5-1.6,2.9-2.8,4.1c-1.1,1.2-2.4,2.1-3.9,2.8C-458.8-185.2-460.4-184.8-462-184.8z M-461.6-187.2c1.2,0,2.3-0.2,3.3-0.7
			c1.1-0.6,2.1-1.3,3-2.2c0.8-0.9,1.5-2,2-3.1c0.5-1.2,0.8-2.5,0.7-3.9c0-0.9-0.1-1.7-0.4-2.6c-0.2-0.8-0.6-1.6-1.1-2.2
			c-0.5-0.6-1.2-1.1-1.8-1.5c-0.7-0.4-1.4-0.5-2.2-0.6c-1.2,0-2.3,0.2-3.3,0.7c-1.1,0.6-2.1,1.3-3,2.2c-0.8,0.9-1.5,2-2,3.1
			c-0.5,1.2-0.8,2.5-0.7,3.9c0,0.9,0.1,1.7,0.4,2.6c0.2,0.8,0.6,1.5,1.1,2c0.5,0.6,1.2,1.1,1.8,1.5
			C-463.2-187.5-462.4-187.3-461.6-187.2L-461.6-187.2z"/>
	</g>
</g>
</svg>
