<svg xmlns="http://www.w3.org/2000/svg" xmlns:xlink="http://www.w3.org/1999/xlink" viewBox="2901 708.281 98.9 147.319"><defs><style>.a{clip-path:url(#a);}.b{fill:#1b597f;}.c{fill:#7be0f1;}.d{fill:#ebf5ee;}</style><clipPath id="a"><rect width="98.9" height="147.319"/></clipPath></defs><g transform="translate(2901 708.281)"><g class="a"><path class="b" d="M99.671,72.683H9.2l.733-2.29a67.653,67.653,0,0,1,9.94-18.277C29.127,40.067,41.083,33.7,54.459,33.7S79.79,40.067,89,52.115a68.471,68.471,0,0,1,9.94,18.277ZM14.193,69.156H94.724a65.3,65.3,0,0,0-8.566-14.979C77.5,42.907,66.873,37.227,54.459,37.227c-12.368,0-23.042,5.726-31.7,16.949a65.3,65.3,0,0,0-8.566,14.979" transform="translate(-4.986 -18.263)"/></g><g class="a"><path class="c" d="M66.6,59.362a1.777,1.777,0,0,1-1.42-.687A1.8,1.8,0,0,1,65.5,56.2a30.335,30.335,0,0,1,2.932-2.016,1.76,1.76,0,1,1,1.878,2.978c-.916.55-1.787,1.191-2.657,1.832a1.56,1.56,0,0,1-1.054.366" transform="translate(-35.129 -29.22)"/></g><g class="a"><path class="c" d="M36.613,84.458a1.45,1.45,0,0,1-.733-.183,1.777,1.777,0,0,1-.87-2.336,51.278,51.278,0,0,1,9.07-13.376A1.749,1.749,0,0,1,46.6,70.99a46.814,46.814,0,0,0-8.383,12.46,1.787,1.787,0,0,1-1.6,1.008" transform="translate(-18.885 -36.863)"/></g><g class="a"><path class="b" d="M97.216,74.732a9.116,9.116,0,1,1,9.116-9.116,9.11,9.11,0,0,1-9.116,9.116m0-14.7a5.589,5.589,0,1,0,5.589,5.589,5.611,5.611,0,0,0-5.589-5.589" transform="translate(-47.743 -30.618)"/></g><g class="a"><path class="d" d="M110.014,73.257a2.657,2.657,0,1,0-2.657,2.657,2.659,2.659,0,0,0,2.657-2.657" transform="translate(-56.739 -38.259)"/></g><g class="a"><path class="b" d="M86.623,196.257H12.277L0,111.1H98.9ZM15.346,192.73H83.6l11.223-78.1H4.077Z" transform="translate(0 -60.207)"/></g><g class="a"><path class="b" d="M39.035,300.288a2.3,2.3,0,0,1-.55-.092,1.774,1.774,0,0,1-1.1-2.245l2.519-7.467a1.767,1.767,0,0,1,3.344,1.145L40.729,299.1a1.819,1.819,0,0,1-1.695,1.191" transform="translate(-20.207 -156.771)"/></g><g class="a"><path class="b" d="M169.7,300.288A1.819,1.819,0,0,1,168,299.1l-2.519-7.467a1.767,1.767,0,1,1,3.344-1.145l2.519,7.467a1.774,1.774,0,0,1-1.1,2.245,2.3,2.3,0,0,1-.55.092" transform="translate(-89.627 -156.771)"/></g><g class="a"><path class="b" d="M101.332,304.142h-.092a1.713,1.713,0,0,1-1.649-1.832l.6-11.269a1.743,1.743,0,1,1,3.481.183l-.6,11.269a1.693,1.693,0,0,1-1.741,1.649" transform="translate(-53.966 -156.822)"/></g><g class="a"><path class="b" d="M101.026,18.244a2.681,2.681,0,0,1-.6-.092,1.75,1.75,0,0,1-1.054-2.245l1.695-4.672-5.772.55,4.718-10.628a1.822,1.822,0,0,1,2.336-.916,1.762,1.762,0,0,1,.87,2.336l-2.29,5.085,5.268-.5-3.573,9.94a1.637,1.637,0,0,1-1.6,1.145" transform="translate(-51.645 -0.058)"/></g><g class="a"><path class="b" d="M103.643,127.4H60.4V111h43.243Zm-39.716-3.527h36.188v-9.345H63.927v9.345Z" transform="translate(-32.732 -60.153)"/></g><g class="a"><rect class="b" width="3.527" height="12.872" transform="translate(37.288 52.634)"/></g><g class="a"><rect class="b" width="3.527" height="12.872" transform="translate(47.503 52.634)"/></g><g class="a"><rect class="b" width="3.527" height="12.872" transform="translate(57.718 52.634)"/></g><g class="a"><path class="b" d="M85.49,196.281a2.29,2.29,0,1,1,2.29-2.29,2.3,2.3,0,0,1-2.29,2.29" transform="translate(-45.088 -103.886)"/></g><g class="a"><path class="b" d="M85.49,210.981a2.29,2.29,0,1,1,2.29-2.29,2.268,2.268,0,0,1-2.29,2.29" transform="translate(-45.088 -111.852)"/></g><g class="a"><path class="b" d="M115.3,203.06h-13.33a1.447,1.447,0,0,1-1.466-1.466v-8.429a1.447,1.447,0,0,1,1.466-1.466H115.3a1.447,1.447,0,0,1,1.466,1.466v8.429a1.507,1.507,0,0,1-1.466,1.466m-11.91-2.978h10.4v-5.5h-10.4Z" transform="translate(-54.463 -103.886)"/></g><g class="a"><path class="c" d="M39.44,264.438A1.738,1.738,0,0,1,37.7,262.88l-1.42-11.131a1.756,1.756,0,0,1,3.481-.458l1.42,11.131a1.753,1.753,0,0,1-1.512,1.97.413.413,0,0,1-.229.046" transform="translate(-19.651 -135.35)"/></g><g class="a"><path class="c" d="M32.549,209.039a1.738,1.738,0,0,1-1.741-1.557l-.229-1.832a1.756,1.756,0,0,1,3.481-.458l.229,1.832a1.753,1.753,0,0,1-1.512,1.97.413.413,0,0,1-.229.046" transform="translate(-16.562 -110.368)"/></g><g class="a"><path class="c" d="M26.185,158.27a1.738,1.738,0,0,1-1.741-1.557l-3.665-29.363a1.756,1.756,0,1,1,3.481-.458l3.665,29.363a1.753,1.753,0,0,1-1.512,1.97.413.413,0,0,1-.229.046" transform="translate(-11.251 -67.936)"/></g></g></svg>