<?xml version="1.0" encoding="utf-8"?>
<!-- Generator: Adobe Illustrator 21.1.0, SVG Export Plug-In . SVG Version: 6.00 Build 0)  -->
<svg version="1.1" id="Layer_1" xmlns="http://www.w3.org/2000/svg" xmlns:xlink="http://www.w3.org/1999/xlink" x="0px" y="0px"
	 viewBox="0 0 341 352" style="enable-background:new 0 0 341 352;" xml:space="preserve">
<style type="text/css">
	.st0{fill:#203742;}
	.st1{fill:#ADB77C;}
</style>
<g>
	<path class="st0" d="M145.8,192.5v-92.2l-33.4,67H93.4l-33.4-67v92.2H24.4v-154H63l39.9,80.4L143,38.5h38.4v154H145.8z"/>
	<path class="st0" d="M278.9,176.4c-11.5,10.7-24.8,16-39.9,16c-10,0-19.3-1.9-28.2-5.7c-8.8-3.8-16.5-9.1-23.1-15.9
		s-11.8-15.1-15.7-24.7c-3.8-9.6-5.8-20.2-5.8-31.8c0-10.4,1.9-20.2,5.8-29.5c3.8-9.3,9.1-17.3,15.9-24.2c6.8-6.8,14.7-12.3,24-16.3
		c9.2-4,19.2-6,29.9-6c14.1,0,26.4,3,36.9,8.9c10.5,5.9,18.4,14,23.7,24.3l-26,19.7c-3.4-6.8-8.4-12.2-14.8-15.9
		c-6.5-3.8-13.5-5.7-21-5.7c-5.8,0-11.1,1.2-15.9,3.5c-4.8,2.4-8.9,5.6-12.3,9.8c-3.4,4.2-6,9.1-7.9,14.6c-1.8,5.6-2.8,11.5-2.8,18
		c0,6.6,1,12.6,3,18.2c2,5.6,4.8,10.4,8.3,14.4c3.6,4.1,7.8,7.2,12.7,9.5c4.9,2.3,10.3,3.4,16.3,3.4c13.6,0,25.9-6.3,36.9-19v-4.7
		h-29.4V112h58.4v79.3h-29V176.4z M307.9,192.7h-29v-3.8h29V192.7z"/>
	<path class="st1" d="M181.4,68.4c-3.7,5-6.8,10.5-9.3,16.5c-3.8,9.3-5.8,19.1-5.8,29.5c0,11.5,1.9,22.1,5.8,31.8
		c2.5,6.3,5.6,12,9.3,17.1V68.4z"/>
</g>
<g>
	<path class="st1" d="M78,270.9c-5.2,4.4-11.2,6.6-18,6.6c-4.7,0-9.3-0.8-13.6-2.5c-4.3-1.7-8.1-4.1-11.3-7.4
		c-3.2-3.2-5.8-7.2-7.7-11.8c-1.9-4.7-2.9-10-2.9-16c0-5.1,1-9.9,2.9-14.4c1.9-4.4,4.6-8.3,7.9-11.5c3.4-3.3,7.3-5.8,11.9-7.7
		c4.6-1.9,9.5-2.8,14.8-2.8c3.3,0,6.5,0.4,9.5,1.1c3,0.7,5.8,1.8,8.4,3.2c2.6,1.4,4.9,3.1,7,5c2.1,2,3.7,4.2,5,6.6l-14.9,11.4
		c-1.4-2.9-3.6-5.2-6.5-7s-5.9-2.6-9.2-2.6c-2.4,0-4.6,0.5-6.6,1.4c-2,1-3.7,2.3-5.1,4c-1.4,1.7-2.6,3.8-3.4,6.1
		c-0.8,2.4-1.2,5-1.2,7.8c0,2.9,0.4,5.5,1.2,7.8c0.8,2.3,2,4.3,3.5,6c1.5,1.7,3.2,3,5.3,3.9s4.4,1.4,6.9,1.4c5.8,0,11-2.4,15.4-7.2
		H64.6V238h30.1v38.9H78V270.9z"/>
	<path class="st1" d="M104.5,276.9v-73.1h33.6c3.6,0,6.9,0.7,9.9,2.2c3,1.5,5.6,3.4,7.8,5.8s3.9,5.1,5.1,8.1
		c1.2,3.1,1.9,6.1,1.9,9.2c0,4.3-0.9,8.2-2.8,11.9c-1.9,3.7-4.4,6.7-7.7,9l15.4,26.9H145l-12.9-22.5h-7.5v22.5H104.5z M124.6,237
		h12.7c1.2,0,2.4-0.7,3.5-2.1c1.1-1.4,1.6-3.3,1.6-5.8c0-2.5-0.6-4.5-1.9-5.8s-2.5-2-3.7-2h-12.2V237z"/>
	<path class="st1" d="M193,203.8h18.3l25.3,73.1h-20.4l-4.4-14.3h-19.5l-4.3,14.3h-20.5L193,203.8z M208.6,249.2l-6.5-22.7
		l-6.8,22.7H208.6z"/>
	<path class="st1" d="M262.8,241v35.9h-20.1v-73.1h15.7l29.4,37.2v-37.2h20.1v73.1h-16L262.8,241z"/>
</g>
</svg>
