<svg xmlns="http://www.w3.org/2000/svg" xmlns:xlink="http://www.w3.org/1999/xlink" viewBox="2775.5 4418.5 382.4 382.4"><defs><style>.a{fill:#7be0f1;}.b{fill:#3dc2d8;stroke:#ebf5ee;stroke-width:10px;}.c{clip-path:url(#a);}.d{fill:#1b597f;}.e{fill:#ebf5ee;}.f{clip-path:url(#f);}</style><clipPath id="a"><rect width="149.868" height="282.423"/></clipPath><clipPath id="f"><rect class="a" width="149.868" height="282.423"/></clipPath></defs><g transform="translate(2382 -1067)"><path class="b" d="M193.7,7.5c102.836,0,186.2,83.365,186.2,186.2S296.536,379.9,193.7,379.9,7.5,296.536,7.5,193.7,90.865,7.5,193.7,7.5Z" transform="translate(391 5483)"/><g transform="translate(510.22 5542.178)"><g class="c"><path class="d" d="M74.878,241.5c-20.462,0-39.463-12.817-53.629-36.2C7.533,182.7,0,152.679,0,120.749S7.533,58.8,21.249,36.2C35.415,12.817,54.528,0,74.878,0c20.462,0,39.463,12.817,53.629,36.2,13.716,22.711,21.249,52.729,21.249,84.547S142.223,182.7,128.507,205.3c-14.166,23.385-33.167,36.2-53.629,36.2m0-232.841C57.564,8.657,41.149,20.012,28.67,40.7,15.74,62.061,8.657,90.506,8.657,120.749c0,30.356,7.083,58.8,20.012,80.05,12.48,20.687,28.894,32.042,46.209,32.042s33.729-11.355,46.209-32.042c12.929-21.362,20.012-49.806,20.012-80.05,0-30.356-7.083-58.8-20.012-80.05C108.607,20.012,92.192,8.657,74.878,8.657"/></g><g class="c"><path class="d" d="M83.71,97.32a23.61,23.61,0,1,1,23.61-23.61A23.607,23.607,0,0,1,83.71,97.32m0-38.676A14.953,14.953,0,1,0,98.663,73.6,14.946,14.946,0,0,0,83.71,58.645" transform="translate(7.47 6.227)"/></g><g class="c"><path class="e" d="M91.541,71.871a6.971,6.971,0,1,0-6.971,6.971,7.006,7.006,0,0,0,6.971-6.971" transform="translate(9.645 8.067)"/></g><g class="c"><path class="d" d="M70.686,73.485H59.106V69.1h11.58v4.385Zm-16.64,0H42.467V69.1h11.58Zm-16.64,0H25.94V69.1H37.52v4.385Zm-16.527,0H9.3V69.1H20.88Z" transform="translate(1.156 8.589)"/></g><g class="c"><path class="d" d="M126.407,73.485h-11.58V69.1h11.58Zm-16.64,0H98.3V69.1h11.58v4.385Z" transform="translate(12.218 8.589)"/></g><g class="f"><path class="a" d="M57.123,239.7a2.976,2.976,0,0,1-2.923-2.923V225.423a2.9,2.9,0,0,1,2.923-2.923,2.977,2.977,0,0,1,2.923,2.923v11.355a2.836,2.836,0,0,1-2.923,2.923" transform="translate(6.737 27.656)"/></g><g class="c"><path class="a" d="M65.923,254.146A2.977,2.977,0,0,1,63,251.223v-20.8a2.923,2.923,0,1,1,5.846,0v20.8a2.9,2.9,0,0,1-2.923,2.923" transform="translate(7.831 28.277)"/></g><g class="c"><path class="a" d="M74.723,245.984a2.976,2.976,0,0,1-2.923-2.923V223.723a2.9,2.9,0,0,1,2.923-2.923,2.977,2.977,0,0,1,2.923,2.923v19.338a3.056,3.056,0,0,1-2.923,2.923" transform="translate(8.924 27.444)"/></g><g class="c"><path class="a" d="M57.123,246.508a2.977,2.977,0,0,1-2.923-2.923v-.562a2.9,2.9,0,0,1,2.923-2.923,2.977,2.977,0,0,1,2.923,2.923v.562a2.836,2.836,0,0,1-2.923,2.923" transform="translate(6.737 29.843)"/></g><g class="c"><path class="d" d="M109.841,166.22H58.8a3.552,3.552,0,0,1-3.6-3.6V102.7a3.552,3.552,0,0,1,3.6-3.6h51.043a3.552,3.552,0,0,1,3.6,3.6v59.925a3.623,3.623,0,0,1-3.6,3.6m-47.445-7.2h43.847V106.3H62.4Z" transform="translate(6.861 12.318)"/></g><g class="c"><rect class="d" width="21.924" height="8.657" transform="translate(77.127 125.696)"/></g><g class="c"><rect class="d" width="9.894" height="8.657" transform="translate(77.127 140.649)"/></g><g class="c"><rect class="d" width="17.089" height="8.657" transform="translate(90.168 140.649)"/></g><g class="c"><rect class="d" width="12.367" height="8.657" transform="translate(77.127 156.389)"/></g><g class="c"><rect class="d" width="5.509" height="8.657" transform="translate(92.754 156.389)"/></g><g class="c"><rect class="d" width="4.385" height="8.657" transform="translate(102.873 156.389)"/></g><g class="c"><rect class="d" width="5.509" height="8.657" transform="translate(101.749 125.696)"/></g><g class="c"><path class="a" d="M42.732,193.239a4.254,4.254,0,0,1-3.148-1.349,77.732,77.732,0,0,1-11.018-15.066,4.358,4.358,0,1,1,7.533-4.385,70.957,70.957,0,0,0,9.894,13.492A4.178,4.178,0,0,1,45.767,192a4.552,4.552,0,0,1-3.036,1.237" transform="translate(3.477 21.164)"/></g><g class="c"><path class="a" d="M27.94,176.683a4.383,4.383,0,0,1-4.047-2.7C16.247,155.547,12.2,133.51,12.2,110.462a186.368,186.368,0,0,1,1.462-23.947,4.309,4.309,0,1,1,8.545,1.124,191.34,191.34,0,0,0-1.462,22.823c0,21.924,3.823,42.836,11.018,60.262a4.26,4.26,0,0,1-2.361,5.621,3.462,3.462,0,0,1-1.462.337" transform="translate(1.516 10.287)"/></g><g class="c"><path class="a" d="M30.379,49.5a4.41,4.41,0,0,1-2.024-.45,4.293,4.293,0,0,1-1.8-5.846,30.284,30.284,0,0,1,1.8-3.26A4.379,4.379,0,0,1,36,44.218l-1.686,3.036A4.568,4.568,0,0,1,30.379,49.5" transform="translate(3.237 4.689)"/></g><g class="c"><path class="a" d="M40.277,35.395a3.9,3.9,0,0,1-2.811-1.124,4.288,4.288,0,0,1-.45-6.071A56.343,56.343,0,0,1,49.946,17.069a4.338,4.338,0,0,1,4.5,7.42,46.959,46.959,0,0,0-10.906,9.444,4.051,4.051,0,0,1-3.26,1.462" transform="translate(4.47 2.044)"/></g><g class="c"><path class="d" d="M87.689,228H49.8V207.2H87.689Zm-29.232-8.657H79.032v-3.485H58.457Z" transform="translate(6.19 25.754)"/></g></g></g></svg>