<svg xmlns="http://www.w3.org/2000/svg" xmlns:xlink="http://www.w3.org/1999/xlink" viewBox="397 5041 251 251"><defs><style>.a{fill:#7be0f1;}.b{fill:#3dc2d8;stroke:#ebf5ee;stroke-width:5px;}.c{clip-path:url(#a);}.d{fill:#1b597f;}.e{fill:#ebf5ee;}.f{clip-path:url(#f);}</style><clipPath id="a"><rect width="99" height="186.563"/></clipPath><clipPath id="f"><rect class="a" width="99" height="186.563"/></clipPath></defs><g transform="translate(1 -447)"><path class="b" d="M130.5,7.5a123,123,0,1,1-123,123A123,123,0,0,1,130.5,7.5Z" transform="translate(391 5483)"/><g transform="translate(472.3 5524.637)"><g class="c"><path class="d" d="M49.463,159.529c-13.517,0-26.068-8.467-35.426-23.914C4.976,120.686,0,100.857,0,79.764s4.976-40.922,14.037-55.85C23.395,8.467,36.02,0,49.463,0,62.98,0,75.531,8.467,84.889,23.914c9.061,15,14.037,34.832,14.037,55.85s-4.976,40.922-14.037,55.85c-9.358,15.448-21.909,23.914-35.426,23.914m0-153.81c-11.437,0-22.281,7.5-30.524,21.167C10.4,41,5.719,59.786,5.719,79.764c0,20.053,4.679,38.842,13.22,52.879,8.244,13.665,19.087,21.167,30.524,21.167s22.281-7.5,30.524-21.167c8.541-14.111,13.22-32.9,13.22-52.879,0-20.053-4.679-38.842-13.22-52.879C71.743,13.22,60.9,5.719,49.463,5.719"/></g><g class="c"><path class="d" d="M75.7,81.293a15.6,15.6,0,1,1,15.6-15.6,15.594,15.594,0,0,1-15.6,15.6m0-25.548a9.878,9.878,0,1,0,9.878,9.878A9.873,9.873,0,0,0,75.7,55.744" transform="translate(-15.465 -12.891)"/></g><g class="c"><path class="e" d="M86.809,69.5a4.6,4.6,0,1,0-4.6,4.6,4.628,4.628,0,0,0,4.6-4.6" transform="translate(-19.968 -16.7)"/></g><g class="c"><path class="d" d="M49.851,72H42.2V69.1h7.65V72ZM38.859,72h-7.65V69.1h7.65ZM27.867,72H20.292V69.1h7.65V72ZM16.95,72H9.3V69.1h7.65Z" transform="translate(-2.393 -17.78)"/></g><g class="c"><path class="d" d="M116.867,72h-7.65V69.1h7.65Zm-10.992,0H98.3V69.1h7.65V72Z" transform="translate(-25.294 -17.78)"/></g><g class="f"><path class="a" d="M56.131,233.863a1.966,1.966,0,0,1-1.931-1.931v-7.5a1.918,1.918,0,0,1,1.931-1.931,1.966,1.966,0,0,1,1.931,1.931v7.5a1.873,1.873,0,0,1-1.931,1.931" transform="translate(-13.946 -57.252)"/></g><g class="c"><path class="a" d="M64.931,245.1A1.966,1.966,0,0,1,63,243.171v-13.74a1.931,1.931,0,0,1,3.862,0v13.74a1.918,1.918,0,0,1-1.931,1.931" transform="translate(-16.211 -58.539)"/></g><g class="c"><path class="a" d="M73.731,237.436a1.966,1.966,0,0,1-1.931-1.931V222.731a1.918,1.918,0,0,1,1.931-1.931,1.966,1.966,0,0,1,1.931,1.931v12.774a2.019,2.019,0,0,1-1.931,1.931" transform="translate(-18.475 -56.815)"/></g><g class="c"><path class="a" d="M56.131,244.333A1.966,1.966,0,0,1,54.2,242.4v-.371a1.918,1.918,0,0,1,1.931-1.931,1.966,1.966,0,0,1,1.931,1.931v.371a1.873,1.873,0,0,1-1.931,1.931" transform="translate(-13.946 -61.781)"/></g><g class="c"><path class="d" d="M91.295,143.438H57.577a2.346,2.346,0,0,1-2.377-2.377V101.477A2.346,2.346,0,0,1,57.577,99.1H91.295a2.346,2.346,0,0,1,2.377,2.377v39.585a2.393,2.393,0,0,1-2.377,2.377m-31.341-4.753H88.918V103.853H59.953Z" transform="translate(-14.204 -25.5)"/></g><g class="c"><rect class="d" width="14.482" height="5.719" transform="translate(50.948 83.032)"/></g><g class="c"><rect class="d" width="6.536" height="5.719" transform="translate(50.948 92.91)"/></g><g class="c"><rect class="d" width="11.289" height="5.719" transform="translate(59.563 92.91)"/></g><g class="c"><rect class="d" width="8.17" height="5.719" transform="translate(50.948 103.308)"/></g><g class="c"><rect class="d" width="3.639" height="5.719" transform="translate(61.272 103.308)"/></g><g class="c"><rect class="d" width="2.896" height="5.719" transform="translate(67.956 103.308)"/></g><g class="c"><rect class="d" width="3.639" height="5.719" transform="translate(67.213 83.032)"/></g><g class="c"><path class="a" d="M37.722,185.444a2.81,2.81,0,0,1-2.08-.891,51.349,51.349,0,0,1-7.278-9.952,2.879,2.879,0,1,1,4.976-2.9,46.872,46.872,0,0,0,6.536,8.912,2.76,2.76,0,0,1-.149,4.01,3.007,3.007,0,0,1-2.005.817" transform="translate(-7.198 -43.814)"/></g><g class="c"><path class="a" d="M22.6,144.8a2.9,2.9,0,0,1-2.674-1.782c-5.05-12.18-7.724-26.737-7.724-41.962a123.11,123.11,0,0,1,.965-15.819,2.847,2.847,0,1,1,5.644.743,126.4,126.4,0,0,0-.965,15.077c0,14.482,2.525,28.3,7.278,39.808a2.814,2.814,0,0,1-1.56,3.713,2.287,2.287,0,0,1-.965.223" transform="translate(-3.139 -21.296)"/></g><g class="c"><path class="a" d="M28.908,45.5a2.913,2.913,0,0,1-1.337-.3,2.836,2.836,0,0,1-1.188-3.862,20.006,20.006,0,0,1,1.188-2.154,2.893,2.893,0,0,1,5.05,2.822l-1.114,2.005a3.018,3.018,0,0,1-2.6,1.485" transform="translate(-6.702 -9.706)"/></g><g class="c"><path class="a" d="M38.813,28.964a2.578,2.578,0,0,1-1.857-.743,2.833,2.833,0,0,1-.3-4.011A37.219,37.219,0,0,1,45.2,16.858a2.866,2.866,0,1,1,2.971,4.9A31.02,31.02,0,0,0,40.967,28a2.676,2.676,0,0,1-2.154.965" transform="translate(-9.254 -4.232)"/></g><g class="c"><path class="d" d="M74.829,220.94H49.8V207.2H74.829Zm-19.31-5.719H69.11v-2.3H55.519Z" transform="translate(-12.814 -53.316)"/></g></g></g></svg>