<svg xmlns="http://www.w3.org/2000/svg" xmlns:xlink="http://www.w3.org/1999/xlink" viewBox="981 5041 251 251"><defs><style>.a{fill:#7be0f1;}.b{fill:#3dc2d8;stroke:#ebf5ee;stroke-width:5px;}.c{clip-path:url(#a);}.d{fill:#1b597f;}.e{clip-path:url(#g);}.f{fill:#ebf5ee;}</style><clipPath id="a"><rect width="93.5" height="183.429"/></clipPath><clipPath id="g"><rect class="a" width="93.5" height="183.429"/></clipPath></defs><g transform="translate(585 -447)"><path class="b" d="M130.5,7.5a123,123,0,1,1-123,123A123,123,0,0,1,130.5,7.5Z" transform="translate(391 5483)"/><g transform="translate(474 5521.67)"><g class="c"><path class="d" d="M21.433,294.374a8.523,8.523,0,0,1-8.533-8.533V281h4.66v4.781a3.873,3.873,0,0,0,7.746,0V281h4.66v4.781a8.575,8.575,0,0,1-8.533,8.594" transform="translate(-5.093 -110.945)"/></g><g class="c"><path class="d" d="M121.833,294.374a8.523,8.523,0,0,1-8.533-8.533V281h4.66v4.781a3.873,3.873,0,0,0,7.746,0V281h4.66v4.781a8.575,8.575,0,0,1-8.533,8.594" transform="translate(-44.733 -110.945)"/></g><g class="c"><path class="d" d="M80.225,33.829a2.363,2.363,0,0,1-2.36-2.36V15.432a10.772,10.772,0,0,0-21.544,0V31.469a2.36,2.36,0,1,1-4.72,0V15.432a15.462,15.462,0,0,1,30.925,0V31.469a2.276,2.276,0,0,1-2.3,2.36" transform="translate(-20.373)"/></g><g class="c"><path class="d" d="M72.186,36.929a3.542,3.542,0,0,1-.787-.121,2.344,2.344,0,0,1-1.452-2.965l2.179-6.233L64.5,28.4l6.173-14.1a2.344,2.344,0,1,1,4.3,1.876l-2.9,6.778,6.96-.726-4.6,13.132a2.4,2.4,0,0,1-2.239,1.573" transform="translate(-25.466 -5.096)"/></g><g class="c"><path class="d" d="M93.5,191.169H0V94.22a46.72,46.72,0,1,1,93.439,0v96.95Zm-88.84-4.66H88.84V94.22a42.06,42.06,0,1,0-84.12,0v92.29Z" transform="translate(0 -18.754)"/></g><g class="c"><path class="a" d="M17.26,252.047a2.363,2.363,0,0,1-2.36-2.36V232.56a2.36,2.36,0,1,1,4.72,0v17.127a2.445,2.445,0,0,1-2.36,2.36" transform="translate(-5.883 -90.888)"/></g><g class="e"><path class="a" d="M17.26,220.789a2.363,2.363,0,0,1-2.36-2.36v-.968a2.36,2.36,0,1,1,4.72,0v.968a2.4,2.4,0,0,1-2.36,2.36" transform="translate(-5.883 -84.926)"/></g><g class="c"><path class="a" d="M17.26,158.9a2.363,2.363,0,0,1-2.36-2.36V149.76a2.36,2.36,0,0,1,4.72,0v6.778a2.445,2.445,0,0,1-2.36,2.36" transform="translate(-5.883 -58.197)"/></g><g class="c"><path class="a" d="M17.26,111.388a2.363,2.363,0,0,1-2.36-2.36v-3.45h0C14.9,83.792,32.087,66,53.147,66a2.36,2.36,0,1,1,0,4.72c-18.518,0-33.587,15.614-33.587,34.858h0v3.45a2.312,2.312,0,0,1-2.3,2.36" transform="translate(-5.883 -26.058)"/></g><g class="c"><rect class="d" width="3.086" height="2.36" transform="translate(4.66 105.361)"/></g><g class="c"><path class="d" d="M89.8,176.36H83.262V174H89.8Zm-9.38,0H73.882V174h6.536Zm-9.38,0H64.5V174h6.536Zm-9.38,0H55.121V174h6.536Zm-9.38,0H45.741V174h6.536Zm-9.38,0H36.361V174H42.9v2.36Zm-9.38,0H26.98V174h6.536v2.36Zm-9.38,0H17.6V174h6.536Z" transform="translate(-6.949 -68.699)"/></g><g class="c"><rect class="d" width="3.086" height="2.36" transform="translate(85.693 105.361)"/></g><g class="c"><path class="d" d="M91.043,131.886a12.043,12.043,0,1,1,12.043-12.043,12.036,12.036,0,0,1-12.043,12.043m0-19.426a7.383,7.383,0,1,0,7.383,7.383,7.413,7.413,0,0,0-7.383-7.383" transform="translate(-31.191 -42.562)"/></g><g class="c"><path class="f" d="M102.62,125.41a3.51,3.51,0,1,0-3.51,3.51,3.513,3.513,0,0,0,3.51-3.51" transform="translate(-37.745 -48.129)"/></g></g></g></svg>