<svg xmlns="http://www.w3.org/2000/svg" viewBox="3406.637 3314 57.627 57.627"><defs><style>.a{fill:#3dc2d8;}</style></defs><g transform="translate(3406.637 3314)"><path class="a" d="M25.623,31.393a5.759,5.759,0,1,0-5.766-5.769A5.777,5.777,0,0,0,25.623,31.393Z" transform="translate(3.189 3.189)"/><path class="a" d="M36.447,19.515V13.96l-.723,0-4.833.015.019,5.556Z" transform="translate(4.961 2.242)"/><path class="a" d="M28.813,0A28.814,28.814,0,1,0,57.627,28.814,28.846,28.846,0,0,0,28.813,0ZM45.2,25.451V38.868A6.34,6.34,0,0,1,38.867,45.2H18.76a6.339,6.339,0,0,1-6.333-6.335V18.761a6.339,6.339,0,0,1,6.333-6.334H38.865A6.34,6.34,0,0,1,45.2,18.761Z"/><path class="a" d="M35.615,25.291a8.963,8.963,0,1,1-17.266-3.362H13.457V35.346A3.14,3.14,0,0,0,16.6,38.484H36.7a3.142,3.142,0,0,0,3.141-3.138V21.929H34.949A8.841,8.841,0,0,1,35.615,25.291Z" transform="translate(2.161 3.522)"/></g></svg>